<svg xmlns="http://www.w3.org/2000/svg" viewBox="0 0 128 148" preserveAspectRatio="xMidYMid meet">
  <defs><clipPath id="hex"><polygon points="64,0 128,37 128,111 64,148 0,111 0,37"/></clipPath></defs>
  <g clip-path="url(#hex)"><path d="M 134.00 74.00 C 113.00 74.00 70.30 74.00 64.00 74.00 M 99.00 13.30 C 88.50 31.51 67.15 68.54 64.00 74.00 M -6.00 74.00 C 15.00 74.00 57.70 74.00 64.00 74.00 M 29.00 134.70 C 39.50 116.49 60.85 79.46 64.00 74.00 M 99.00 134.70 C 88.50 116.49 67.15 79.46 64.00 74.00" fill="none" stroke="#7a5a30" stroke-width="5" stroke-linecap="round" stroke-linejoin="round"/><path d="M 134.00 74.00 C 113.00 74.00 70.30 74.00 64.00 74.00 M 99.00 13.30 C 88.50 31.51 67.15 68.54 64.00 74.00 M -6.00 74.00 C 15.00 74.00 57.70 74.00 64.00 74.00 M 29.00 134.70 C 39.50 116.49 60.85 79.46 64.00 74.00 M 99.00 134.70 C 88.50 116.49 67.15 79.46 64.00 74.00" fill="none" stroke="#a07a3e" stroke-width="3" stroke-linecap="round" stroke-linejoin="round" opacity="0.75"/><path d="M 134.00 74.00 C 113.00 74.00 70.30 74.00 64.00 74.00 M 99.00 13.30 C 88.50 31.51 67.15 68.54 64.00 74.00 M -6.00 74.00 C 15.00 74.00 57.70 74.00 64.00 74.00 M 29.00 134.70 C 39.50 116.49 60.85 79.46 64.00 74.00 M 99.00 134.70 C 88.50 116.49 67.15 79.46 64.00 74.00" fill="none" stroke="#5a4022" stroke-width="0.5" opacity="0.55"/></g>
</svg>
