<svg xmlns="http://www.w3.org/2000/svg" viewBox="0 0 64 64">
  <defs>
    <linearGradient id="lg-stone" x1="0" y1="0" x2="0.6" y2="1">
      <stop offset="0" stop-color="#dcc8a4"/>
      <stop offset="1" stop-color="#7a5e36"/>
    </linearGradient>
    <linearGradient id="lg-shadow" x1="0" y1="0" x2="0" y2="1">
      <stop offset="0" stop-color="#a48a5a"/>
      <stop offset="1" stop-color="#3e2c14"/>
    </linearGradient>
    <linearGradient id="lg-water" x1="0" y1="0" x2="0" y2="1">
      <stop offset="0" stop-color="#7eb0c8"/>
      <stop offset="1" stop-color="#2a5a7a"/>
    </linearGradient>
    <filter id="nz" x="0" y="0" width="1" height="1">
      <feTurbulence type="fractalNoise" baseFrequency="1.0" numOctaves="2" seed="65"/>
      <feColorMatrix values="0 0 0 0 0  0 0 0 0 0  0 0 0 0 0  0 0 0 0.18 0"/>
      <feComposite in2="SourceGraphic" operator="in"/>
    </filter>
    <filter id="ds" x="-30%" y="-30%" width="160%" height="160%">
      <feGaussianBlur in="SourceAlpha" stdDeviation="0.6"/>
      <feOffset dx="0.5" dy="1"/>
      <feComponentTransfer><feFuncA type="linear" slope="0.55"/></feComponentTransfer>
      <feMerge><feMergeNode/><feMergeNode in="SourceGraphic"/></feMerge>
    </filter>
  </defs>
  <rect x="2" y="52" width="60" height="10" rx="2" fill="#6a563a"/>
  <rect x="2" y="52" width="60" height="10" rx="2" fill="#2a2010" filter="url(#nz)" opacity="0.35"/>
  <g filter="url(#ds)">
    <!-- top channel deck -->
    <rect x="2" y="14" width="60" height="6" fill="url(#lg-stone)" stroke="#3a2814" stroke-width="0.5"/>
    <!-- water trough on top -->
    <rect x="4" y="14" width="56" height="2" fill="url(#lg-water)"/>
    <!-- water ripple highlights -->
    <g stroke="#cce3f0" stroke-width="0.3" opacity="0.7">
      <line x1="8" y1="15" x2="14" y2="15"/>
      <line x1="22" y1="15" x2="28" y2="15"/>
      <line x1="38" y1="15" x2="44" y2="15"/>
      <line x1="52" y1="15" x2="58" y2="15"/>
    </g>
    <!-- top deck shadow -->
    <rect x="2" y="20" width="60" height="2" fill="url(#lg-shadow)" opacity="0.85"/>
    <!-- arches -->
    <g>
      <path d="M 6 52 L 6 30 A 8 8 0 0 1 22 30 L 22 52 Z" fill="url(#lg-stone)" stroke="#3a2814" stroke-width="0.5"/>
      <path d="M 24 52 L 24 30 A 8 8 0 0 1 40 30 L 40 52 Z" fill="url(#lg-stone)" stroke="#3a2814" stroke-width="0.5"/>
      <path d="M 42 52 L 42 30 A 8 8 0 0 1 58 30 L 58 52 Z" fill="url(#lg-stone)" stroke="#3a2814" stroke-width="0.5"/>
      <!-- inner arch shadows -->
      <path d="M 8 52 L 8 30 A 6 6 0 0 1 20 30 L 20 52 Z" fill="#3e2c18"/>
      <path d="M 26 52 L 26 30 A 6 6 0 0 1 38 30 L 38 52 Z" fill="#3e2c18"/>
      <path d="M 44 52 L 44 30 A 6 6 0 0 1 56 30 L 56 52 Z" fill="#3e2c18"/>
    </g>
    <!-- voussoirs (radial stones around each arch) -->
    <g stroke="#3a2814" stroke-width="0.3" opacity="0.7">
      <line x1="8" y1="30" x2="9" y2="26"/>
      <line x1="14" y1="22" x2="14" y2="26"/>
      <line x1="20" y1="30" x2="19" y2="26"/>
      <line x1="26" y1="30" x2="27" y2="26"/>
      <line x1="32" y1="22" x2="32" y2="26"/>
      <line x1="38" y1="30" x2="37" y2="26"/>
      <line x1="44" y1="30" x2="45" y2="26"/>
      <line x1="50" y1="22" x2="50" y2="26"/>
      <line x1="56" y1="30" x2="55" y2="26"/>
    </g>
    <!-- block courses on piers -->
    <g stroke="#3a2814" stroke-width="0.3" opacity="0.55">
      <line x1="4" y1="40" x2="8" y2="40"/>
      <line x1="20" y1="40" x2="24" y2="40"/>
      <line x1="40" y1="40" x2="44" y2="40"/>
      <line x1="56" y1="40" x2="60" y2="40"/>
      <line x1="4" y1="46" x2="8" y2="46"/>
      <line x1="20" y1="46" x2="24" y2="46"/>
      <line x1="40" y1="46" x2="44" y2="46"/>
      <line x1="56" y1="46" x2="60" y2="46"/>
    </g>
  </g>
  <!-- weeds at base -->
  <g stroke="#5a7a2a" stroke-width="0.5" stroke-linecap="round" opacity="0.75">
    <line x1="6" y1="58" x2="6" y2="54"/>
    <line x1="22" y1="60" x2="22" y2="56"/>
    <line x1="40" y1="58" x2="40" y2="54"/>
    <line x1="56" y1="60" x2="56" y2="56"/>
  </g>
</svg>
