<svg xmlns="http://www.w3.org/2000/svg" viewBox="0 0 64 64">
  <defs>
    <linearGradient id="lg-wall" x1="0" y1="0" x2="0.6" y2="1">
      <stop offset="0" stop-color="#d8b67c"/>
      <stop offset="1" stop-color="#7a5a30"/>
    </linearGradient>
    <linearGradient id="lg-roof" x1="0" y1="0" x2="0" y2="1">
      <stop offset="0" stop-color="#a4502c"/>
      <stop offset="1" stop-color="#3e1c0c"/>
    </linearGradient>
    <radialGradient id="lg-fire" cx="0.5" cy="0.6" r="0.5">
      <stop offset="0" stop-color="#fee076"/>
      <stop offset="0.6" stop-color="#e07e2c"/>
      <stop offset="1" stop-color="#a83c10"/>
    </radialGradient>
    <filter id="nz" x="0" y="0" width="1" height="1">
      <feTurbulence type="fractalNoise" baseFrequency="1.0" numOctaves="2" seed="15"/>
      <feColorMatrix values="0 0 0 0 0  0 0 0 0 0  0 0 0 0 0  0 0 0 0.18 0"/>
      <feComposite in2="SourceGraphic" operator="in"/>
    </filter>
    <filter id="ds" x="-30%" y="-30%" width="160%" height="160%">
      <feGaussianBlur in="SourceAlpha" stdDeviation="0.6"/>
      <feOffset dx="0.5" dy="1"/>
      <feComponentTransfer><feFuncA type="linear" slope="0.55"/></feComponentTransfer>
      <feMerge><feMergeNode/><feMergeNode in="SourceGraphic"/></feMerge>
    </filter>
  </defs>
  <!-- ground -->
  <rect x="2" y="48" width="60" height="14" rx="2" fill="#6a563a"/>
  <rect x="2" y="48" width="60" height="14" rx="2" fill="#2a2010" filter="url(#nz)" opacity="0.4"/>
  <g filter="url(#ds)">
    <!-- bakery body -->
    <rect x="10" y="24" width="26" height="24" fill="url(#lg-wall)" stroke="#3a2010" stroke-width="0.5"/>
    <!-- roof -->
    <polygon points="8,24 38,24 32,14 14,14" fill="url(#lg-roof)" stroke="#2a1408" stroke-width="0.5"/>
    <!-- door -->
    <rect x="20" y="36" width="6" height="12" fill="#3a2010"/>
    <!-- window -->
    <rect x="14" y="30" width="4" height="3" fill="#3a2010"/>
    <rect x="28" y="30" width="4" height="3" fill="#3a2010"/>
    <!-- oven dome (attached on right) -->
    <path d="M 38 48 L 38 38 A 10 10 0 0 1 58 38 L 58 48 Z" fill="#a07246" stroke="#3a2010" stroke-width="0.5"/>
    <!-- oven mouth -->
    <path d="M 44 48 L 44 44 A 4 4 0 0 1 52 44 L 52 48 Z" fill="url(#lg-fire)"/>
    <!-- ember glow -->
    <ellipse cx="48" cy="47" rx="3" ry="1" fill="#ffe096" opacity="0.7"/>
    <!-- chimney on roof -->
    <rect x="20" y="8" width="3" height="8" fill="#5a4030"/>
    <ellipse cx="21.5" cy="6" rx="3" ry="2" fill="#a8a098" opacity="0.7"/>
    <ellipse cx="21" cy="3" rx="2.5" ry="1.6" fill="#bcb4ac" opacity="0.55"/>
    <ellipse cx="22" cy="1" rx="2" ry="1.4" fill="#cac4bc" opacity="0.4"/>
  </g>
  <!-- bread loaves at front -->
  <g>
    <ellipse cx="14" cy="52" rx="3" ry="1.6" fill="#d2a06a" stroke="#7a4a1c" stroke-width="0.3"/>
    <ellipse cx="22" cy="53" rx="3" ry="1.6" fill="#d2a06a" stroke="#7a4a1c" stroke-width="0.3"/>
    <ellipse cx="30" cy="52" rx="3" ry="1.6" fill="#d2a06a" stroke="#7a4a1c" stroke-width="0.3"/>
    <line x1="12" y1="52" x2="16" y2="52" stroke="#7a4a1c" stroke-width="0.3"/>
    <line x1="20" y1="53" x2="24" y2="53" stroke="#7a4a1c" stroke-width="0.3"/>
    <line x1="28" y1="52" x2="32" y2="52" stroke="#7a4a1c" stroke-width="0.3"/>
  </g>
</svg>
