<svg xmlns="http://www.w3.org/2000/svg" viewBox="0 0 64 64">
  <defs>
    <linearGradient id="lg-wall" x1="0" y1="0" x2="0.6" y2="1">
      <stop offset="0" stop-color="#bcb09a"/>
      <stop offset="1" stop-color="#5e564a"/>
    </linearGradient>
    <linearGradient id="lg-roof" x1="0" y1="0" x2="0" y2="1">
      <stop offset="0" stop-color="#9a3828"/>
      <stop offset="1" stop-color="#3e1408"/>
    </linearGradient>
    <linearGradient id="lg-banner" x1="0" y1="0" x2="0" y2="1">
      <stop offset="0" stop-color="#a83828"/>
      <stop offset="1" stop-color="#5a1408"/>
    </linearGradient>
    <filter id="nz" x="0" y="0" width="1" height="1">
      <feTurbulence type="fractalNoise" baseFrequency="1.0" numOctaves="2" seed="63"/>
      <feColorMatrix values="0 0 0 0 0  0 0 0 0 0  0 0 0 0 0  0 0 0 0.16 0"/>
      <feComposite in2="SourceGraphic" operator="in"/>
    </filter>
    <filter id="ds" x="-30%" y="-30%" width="160%" height="160%">
      <feGaussianBlur in="SourceAlpha" stdDeviation="0.6"/>
      <feOffset dx="0.5" dy="1"/>
      <feComponentTransfer><feFuncA type="linear" slope="0.55"/></feComponentTransfer>
      <feMerge><feMergeNode/><feMergeNode in="SourceGraphic"/></feMerge>
    </filter>
  </defs>
  <rect x="2" y="48" width="60" height="14" rx="2" fill="#6a5a40"/>
  <rect x="2" y="48" width="60" height="14" rx="2" fill="#2a201a" filter="url(#nz)" opacity="0.35"/>
  <g filter="url(#ds)">
    <!-- long low barracks -->
    <rect x="4" y="28" width="56" height="20" fill="url(#lg-wall)" stroke="#2a241e" stroke-width="0.5"/>
    <!-- low pitched roof -->
    <polygon points="2,28 62,28 58,18 6,18" fill="url(#lg-roof)" stroke="#1a0e04" stroke-width="0.5"/>
    <line x1="2" y1="22" x2="62" y2="22" stroke="#1a0e04" stroke-width="0.3" opacity="0.6"/>
    <!-- entry -->
    <rect x="28" y="34" width="8" height="14" fill="#2a1408"/>
    <line x1="32" y1="34" x2="32" y2="48" stroke="#1a0e04" stroke-width="0.4"/>
    <!-- 4 small windows -->
    <rect x="8" y="32" width="3" height="4" fill="#2a1408"/>
    <rect x="14" y="32" width="3" height="4" fill="#2a1408"/>
    <rect x="20" y="32" width="3" height="4" fill="#2a1408"/>
    <rect x="40" y="32" width="3" height="4" fill="#2a1408"/>
    <rect x="46" y="32" width="3" height="4" fill="#2a1408"/>
    <rect x="52" y="32" width="3" height="4" fill="#2a1408"/>
    <!-- stone block courses -->
    <g stroke="#3a342e" stroke-width="0.3" opacity="0.55">
      <line x1="4" y1="40" x2="60" y2="40"/>
    </g>
    <!-- banner on side -->
    <rect x="56" y="14" width="1" height="14" fill="#3a2814"/>
    <path d="M 56 14 L 62 14 L 62 22 L 58 26 L 56 24 Z" fill="url(#lg-banner)" stroke="#2a0e08" stroke-width="0.3"/>
    <!-- SPQR-like cross on banner -->
    <line x1="58" y1="16" x2="60" y2="16" stroke="#daca7a" stroke-width="0.3"/>
    <line x1="59" y1="14" x2="59" y2="20" stroke="#daca7a" stroke-width="0.3"/>
  </g>
  <!-- legionary spears stacked -->
  <g stroke="#7a5a2a" stroke-width="0.6">
    <line x1="6" y1="58" x2="14" y2="50"/>
    <line x1="8" y1="58" x2="16" y2="50"/>
    <line x1="10" y1="58" x2="18" y2="50"/>
  </g>
  <g fill="#a8a098" stroke="#3a342a" stroke-width="0.3">
    <polygon points="14,50 14,48 16,50"/>
    <polygon points="16,50 16,48 18,50"/>
    <polygon points="18,50 18,48 20,50"/>
  </g>
  <!-- shield against wall -->
  <ellipse cx="50" cy="54" rx="3" ry="4" fill="#a83828" stroke="#2a0e08" stroke-width="0.4"/>
  <circle cx="50" cy="54" r="1" fill="#daca7a"/>
</svg>
