<svg xmlns="http://www.w3.org/2000/svg" viewBox="0 0 64 64">
  <defs>
    <linearGradient id="lg-wall" x1="0" y1="0" x2="0.6" y2="1">
      <stop offset="0" stop-color="#bca87a"/>
      <stop offset="1" stop-color="#6a5236"/>
    </linearGradient>
    <linearGradient id="lg-roof" x1="0" y1="0" x2="0" y2="1">
      <stop offset="0" stop-color="#7a4e30"/>
      <stop offset="1" stop-color="#3a200e"/>
    </linearGradient>
    <linearGradient id="lg-wood" x1="0" y1="0" x2="0.5" y2="1">
      <stop offset="0" stop-color="#a8763e"/>
      <stop offset="1" stop-color="#5a3a1c"/>
    </linearGradient>
    <linearGradient id="lg-wheel" x1="0" y1="0" x2="0.4" y2="1">
      <stop offset="0" stop-color="#8a6a3a"/>
      <stop offset="1" stop-color="#3a2010"/>
    </linearGradient>
    <filter id="nz" x="0" y="0" width="1" height="1">
      <feTurbulence type="fractalNoise" baseFrequency="1.0" numOctaves="2" seed="53"/>
      <feColorMatrix values="0 0 0 0 0  0 0 0 0 0  0 0 0 0 0  0 0 0 0.18 0"/>
      <feComposite in2="SourceGraphic" operator="in"/>
    </filter>
    <filter id="ds" x="-30%" y="-30%" width="160%" height="160%">
      <feGaussianBlur in="SourceAlpha" stdDeviation="0.6"/>
      <feOffset dx="0.5" dy="1"/>
      <feComponentTransfer><feFuncA type="linear" slope="0.55"/></feComponentTransfer>
      <feMerge><feMergeNode/><feMergeNode in="SourceGraphic"/></feMerge>
    </filter>
  </defs>
  <rect x="2" y="48" width="60" height="14" rx="2" fill="#6a563a"/>
  <rect x="2" y="48" width="60" height="14" rx="2" fill="#2a2010" filter="url(#nz)" opacity="0.4"/>
  <g filter="url(#ds)">
    <!-- workshop -->
    <rect x="6" y="24" width="24" height="24" fill="url(#lg-wall)" stroke="#3a2814" stroke-width="0.5"/>
    <polygon points="4,24 32,24 26,14 10,14" fill="url(#lg-roof)" stroke="#2a1408" stroke-width="0.5"/>
    <rect x="14" y="34" width="6" height="14" fill="#3a2814"/>
    <rect x="22" y="28" width="3" height="3" fill="#3a2814"/>
    <rect x="8" y="28" width="3" height="3" fill="#3a2814"/>
    <!-- finished cart on right -->
    <rect x="38" y="32" width="22" height="8" fill="url(#lg-wood)" stroke="#1f1408" stroke-width="0.4"/>
    <g stroke="#1f1408" stroke-width="0.3" opacity="0.6">
      <line x1="40" y1="36" x2="60" y2="36"/>
      <line x1="44" y1="32" x2="44" y2="40"/>
      <line x1="50" y1="32" x2="50" y2="40"/>
      <line x1="56" y1="32" x2="56" y2="40"/>
    </g>
    <!-- cart shafts forward -->
    <line x1="34" y1="36" x2="40" y2="34" stroke="#7a5a2a" stroke-width="1.4"/>
    <line x1="34" y1="40" x2="40" y2="40" stroke="#7a5a2a" stroke-width="1.4"/>
    <!-- wheels -->
    <circle cx="44" cy="44" r="4" fill="url(#lg-wheel)" stroke="#1f1408" stroke-width="0.5"/>
    <circle cx="44" cy="44" r="1" fill="#1f1408"/>
    <line x1="40" y1="44" x2="48" y2="44" stroke="#1f1408" stroke-width="0.4"/>
    <line x1="44" y1="40" x2="44" y2="48" stroke="#1f1408" stroke-width="0.4"/>
    <line x1="41" y1="41" x2="47" y2="47" stroke="#1f1408" stroke-width="0.3"/>
    <line x1="41" y1="47" x2="47" y2="41" stroke="#1f1408" stroke-width="0.3"/>
    <circle cx="56" cy="44" r="4" fill="url(#lg-wheel)" stroke="#1f1408" stroke-width="0.5"/>
    <circle cx="56" cy="44" r="1" fill="#1f1408"/>
    <line x1="52" y1="44" x2="60" y2="44" stroke="#1f1408" stroke-width="0.4"/>
    <line x1="56" y1="40" x2="56" y2="48" stroke="#1f1408" stroke-width="0.4"/>
    <line x1="53" y1="41" x2="59" y2="47" stroke="#1f1408" stroke-width="0.3"/>
    <line x1="53" y1="47" x2="59" y2="41" stroke="#1f1408" stroke-width="0.3"/>
  </g>
  <!-- spare wheel leaning -->
  <circle cx="10" cy="54" r="4" fill="url(#lg-wheel)" stroke="#1f1408" stroke-width="0.5"/>
  <circle cx="10" cy="54" r="1" fill="#1f1408"/>
  <g stroke="#1f1408" stroke-width="0.3">
    <line x1="6" y1="54" x2="14" y2="54"/>
    <line x1="10" y1="50" x2="10" y2="58"/>
    <line x1="7" y1="51" x2="13" y2="57"/>
    <line x1="7" y1="57" x2="13" y2="51"/>
  </g>
</svg>
