<svg xmlns="http://www.w3.org/2000/svg" viewBox="0 0 64 64">
  <defs>
    <linearGradient id="lg-mound" x1="0" y1="0" x2="0.5" y2="1">
      <stop offset="0" stop-color="#5a4030"/>
      <stop offset="1" stop-color="#1e1208"/>
    </linearGradient>
    <linearGradient id="lg-smoke" x1="0" y1="0" x2="0" y2="1">
      <stop offset="0" stop-color="#a8a098" stop-opacity="0.15"/>
      <stop offset="1" stop-color="#3e342a" stop-opacity="0.85"/>
    </linearGradient>
    <filter id="nz" x="0" y="0" width="1" height="1">
      <feTurbulence type="fractalNoise" baseFrequency="1.1" numOctaves="2" seed="23"/>
      <feColorMatrix values="0 0 0 0 0  0 0 0 0 0  0 0 0 0 0  0 0 0 0.25 0"/>
      <feComposite in2="SourceGraphic" operator="in"/>
    </filter>
    <filter id="ds" x="-30%" y="-30%" width="160%" height="160%">
      <feGaussianBlur in="SourceAlpha" stdDeviation="0.7"/>
      <feOffset dx="0.6" dy="1.2"/>
      <feComponentTransfer><feFuncA type="linear" slope="0.5"/></feComponentTransfer>
      <feMerge><feMergeNode/><feMergeNode in="SourceGraphic"/></feMerge>
    </filter>
  </defs>
  <!-- forest floor -->
  <rect x="2" y="48" width="60" height="14" rx="2" fill="#3a2818"/>
  <rect x="2" y="48" width="60" height="14" rx="2" fill="#1a0e08" filter="url(#nz)" opacity="0.5"/>
  <!-- smoke plumes from vents -->
  <g>
    <ellipse cx="22" cy="22" rx="3.5" ry="2.5" fill="url(#lg-smoke)"/>
    <ellipse cx="20" cy="14" rx="3" ry="2" fill="url(#lg-smoke)" opacity="0.7"/>
    <ellipse cx="32" cy="20" rx="4" ry="2.5" fill="url(#lg-smoke)"/>
    <ellipse cx="34" cy="12" rx="3.2" ry="2" fill="url(#lg-smoke)" opacity="0.7"/>
    <ellipse cx="44" cy="22" rx="3.5" ry="2.5" fill="url(#lg-smoke)"/>
    <ellipse cx="46" cy="14" rx="3" ry="2" fill="url(#lg-smoke)" opacity="0.7"/>
  </g>
  <g filter="url(#ds)">
    <!-- earth-covered mound -->
    <path d="M 8 50 A 24 16 0 0 1 56 50 Z" fill="url(#lg-mound)" stroke="#0e0804" stroke-width="0.5"/>
    <rect x="2" y="48" width="60" height="14" rx="2" fill="#1a0e08" filter="url(#nz)" opacity="0.3"/>
    <!-- exposed wood at base (suggests interior stacked logs) -->
    <g>
      <ellipse cx="16" cy="48" rx="2" ry="1.2" fill="#7a4a1c"/>
      <ellipse cx="22" cy="48" rx="2" ry="1.2" fill="#7a4a1c"/>
      <ellipse cx="42" cy="48" rx="2" ry="1.2" fill="#7a4a1c"/>
      <ellipse cx="48" cy="48" rx="2" ry="1.2" fill="#7a4a1c"/>
    </g>
    <!-- vent openings (orange glow) -->
    <circle cx="22" cy="38" r="1.2" fill="#e8501a"/>
    <circle cx="32" cy="34" r="1.4" fill="#fee076"/>
    <circle cx="42" cy="38" r="1.2" fill="#e8501a"/>
    <!-- earth covering hatching -->
    <g stroke="#1a0e04" stroke-width="0.3" opacity="0.55">
      <path d="M 12 44 L 18 42"/>
      <path d="M 22 32 L 28 30"/>
      <path d="M 36 32 L 42 30"/>
      <path d="M 46 44 L 52 42"/>
    </g>
  </g>
  <!-- charcoal heap and worker shovel -->
  <g>
    <ellipse cx="58" cy="56" rx="5" ry="2" fill="#0e0804"/>
    <ellipse cx="58" cy="55" rx="3" ry="1" fill="#2a1f10"/>
    <line x1="54" y1="58" x2="58" y2="50" stroke="#6a4a26" stroke-width="1"/>
    <rect x="56" y="48" width="4" height="3" fill="#3a2814"/>
  </g>
</svg>
