<svg xmlns="http://www.w3.org/2000/svg" viewBox="0 0 64 64">
  <defs>
    <linearGradient id="lg-stone" x1="0" y1="0" x2="0.4" y2="1">
      <stop offset="0" stop-color="#cac0a8"/>
      <stop offset="1" stop-color="#6a604c"/>
    </linearGradient>
    <radialGradient id="lg-water" cx="0.4" cy="0.3" r="0.6">
      <stop offset="0" stop-color="#9ec0d4"/>
      <stop offset="0.4" stop-color="#4e7e9c"/>
      <stop offset="1" stop-color="#173852"/>
    </radialGradient>
    <filter id="nz" x="0" y="0" width="1" height="1">
      <feTurbulence type="fractalNoise" baseFrequency="0.9" numOctaves="2" seed="29"/>
      <feColorMatrix values="0 0 0 0 0  0 0 0 0 0  0 0 0 0 0  0 0 0 0.18 0"/>
      <feComposite in2="SourceGraphic" operator="in"/>
    </filter>
    <filter id="ds" x="-30%" y="-30%" width="160%" height="160%">
      <feGaussianBlur in="SourceAlpha" stdDeviation="0.6"/>
      <feOffset dx="0.5" dy="1"/>
      <feComponentTransfer><feFuncA type="linear" slope="0.55"/></feComponentTransfer>
      <feMerge><feMergeNode/><feMergeNode in="SourceGraphic"/></feMerge>
    </filter>
  </defs>
  <rect x="2" y="48" width="60" height="14" rx="2" fill="#7a6a48"/>
  <rect x="2" y="48" width="60" height="14" rx="2" fill="#2a2010" filter="url(#nz)" opacity="0.3"/>
  <g filter="url(#ds)">
    <!-- stone rim outer -->
    <ellipse cx="32" cy="46" rx="22" ry="8" fill="url(#lg-stone)" stroke="#3a3024" stroke-width="0.6"/>
    <!-- stone rim inner (water surface depth) -->
    <ellipse cx="32" cy="46" rx="18" ry="6" fill="url(#lg-water)"/>
    <!-- water ripple highlights -->
    <g stroke="#cce3f0" stroke-width="0.5" fill="none" opacity="0.7">
      <path d="M 22 44 Q 26 42 30 44"/>
      <path d="M 34 45 Q 38 43 42 45"/>
      <path d="M 26 48 Q 30 46 34 48"/>
    </g>
    <!-- stone block courses around the rim -->
    <g stroke="#3a3024" stroke-width="0.4" fill="none" opacity="0.6">
      <line x1="14" y1="44" x2="18" y2="44"/>
      <line x1="22" y1="42" x2="26" y2="42"/>
      <line x1="30" y1="40" x2="34" y2="40"/>
      <line x1="38" y1="42" x2="42" y2="42"/>
      <line x1="46" y1="44" x2="50" y2="44"/>
    </g>
    <!-- arched canopy frame above -->
    <path d="M 16 38 L 16 28 A 16 14 0 0 1 48 28 L 48 38" fill="none" stroke="#6a4a26" stroke-width="1.2"/>
    <!-- pillar caps -->
    <rect x="14" y="36" width="4" height="3" fill="#cac0a8" stroke="#3a3024" stroke-width="0.4"/>
    <rect x="46" y="36" width="4" height="3" fill="#cac0a8" stroke="#3a3024" stroke-width="0.4"/>
    <!-- bucket on rope -->
    <line x1="32" y1="20" x2="32" y2="36" stroke="#3a2010" stroke-width="0.5"/>
    <path d="M 28 36 L 36 36 L 35 42 L 29 42 Z" fill="#6a4a26" stroke="#1f1408" stroke-width="0.4"/>
    <ellipse cx="32" cy="36" rx="4" ry="0.8" fill="#3a2010"/>
  </g>
</svg>
