<svg xmlns="http://www.w3.org/2000/svg" viewBox="0 0 64 64">
  <defs>
    <linearGradient id="lg-wall" x1="0" y1="0" x2="0.6" y2="1">
      <stop offset="0" stop-color="#ebd8b0"/>
      <stop offset="1" stop-color="#8a6a3a"/>
    </linearGradient>
    <linearGradient id="lg-roof" x1="0" y1="0" x2="0" y2="1">
      <stop offset="0" stop-color="#c89858"/>
      <stop offset="1" stop-color="#6e4a1c"/>
    </linearGradient>
    <linearGradient id="lg-milk" x1="0" y1="0" x2="0.4" y2="1">
      <stop offset="0" stop-color="#f6efd6"/>
      <stop offset="1" stop-color="#a89868"/>
    </linearGradient>
    <linearGradient id="lg-cow" x1="0" y1="0" x2="0.5" y2="1">
      <stop offset="0" stop-color="#e8d2a4"/>
      <stop offset="1" stop-color="#7a4a1c"/>
    </linearGradient>
    <filter id="nz" x="0" y="0" width="1" height="1">
      <feTurbulence type="fractalNoise" baseFrequency="1.0" numOctaves="2" seed="41"/>
      <feColorMatrix values="0 0 0 0 0  0 0 0 0 0  0 0 0 0 0  0 0 0 0.18 0"/>
      <feComposite in2="SourceGraphic" operator="in"/>
    </filter>
    <filter id="ds" x="-30%" y="-30%" width="160%" height="160%">
      <feGaussianBlur in="SourceAlpha" stdDeviation="0.6"/>
      <feOffset dx="0.5" dy="1"/>
      <feComponentTransfer><feFuncA type="linear" slope="0.55"/></feComponentTransfer>
      <feMerge><feMergeNode/><feMergeNode in="SourceGraphic"/></feMerge>
    </filter>
  </defs>
  <rect x="2" y="48" width="60" height="14" rx="2" fill="#7a6a48"/>
  <rect x="2" y="48" width="60" height="14" rx="2" fill="#2a2010" filter="url(#nz)" opacity="0.4"/>
  <g filter="url(#ds)">
    <rect x="6" y="24" width="26" height="24" fill="url(#lg-wall)" stroke="#3a2814" stroke-width="0.5"/>
    <polygon points="4,24 34,24 28,14 10,14" fill="url(#lg-roof)" stroke="#4d2e10" stroke-width="0.5"/>
    <rect x="14" y="34" width="6" height="14" fill="#3a2814"/>
    <rect x="22" y="28" width="6" height="4" fill="#3a2814"/>
    <rect x="8" y="28" width="3" height="3" fill="#3a2814"/>
    <!-- cow standing to the right -->
    <ellipse cx="46" cy="42" rx="10" ry="6" fill="url(#lg-cow)" stroke="#3a2814" stroke-width="0.4"/>
    <!-- cow patches -->
    <ellipse cx="44" cy="40" rx="3" ry="2" fill="#3a2814" opacity="0.85"/>
    <ellipse cx="50" cy="44" rx="2" ry="1.4" fill="#3a2814" opacity="0.85"/>
    <!-- cow head -->
    <ellipse cx="56" cy="40" rx="4" ry="3.5" fill="#e8d2a4" stroke="#3a2814" stroke-width="0.4"/>
    <!-- ears + horns -->
    <ellipse cx="54" cy="37" rx="1.4" ry="1" fill="#a87a3a" transform="rotate(-30 54 37)"/>
    <ellipse cx="58" cy="37" rx="1.4" ry="1" fill="#a87a3a" transform="rotate(30 58 37)"/>
    <!-- nose -->
    <ellipse cx="59" cy="41" rx="1" ry="0.7" fill="#7a4a1c"/>
    <!-- eye -->
    <circle cx="55" cy="40" r="0.4" fill="#1a0e04"/>
    <!-- legs -->
    <line x1="40" y1="46" x2="40" y2="52" stroke="#3a2814" stroke-width="1.2"/>
    <line x1="44" y1="48" x2="44" y2="52" stroke="#3a2814" stroke-width="1.2"/>
    <line x1="48" y1="48" x2="48" y2="52" stroke="#3a2814" stroke-width="1.2"/>
    <line x1="52" y1="46" x2="52" y2="52" stroke="#3a2814" stroke-width="1.2"/>
    <!-- udder -->
    <ellipse cx="44" cy="47" rx="2" ry="1.2" fill="#e8b8b8"/>
  </g>
  <!-- milk pitcher in front -->
  <g filter="url(#ds)">
    <path d="M 4 60 L 4 54 Q 4 52 6 52 L 12 52 Q 14 52 14 54 L 14 60 Z" fill="url(#lg-milk)" stroke="#3a342a" stroke-width="0.4"/>
    <path d="M 14 56 L 17 54 L 16 58 L 14 58 Z" fill="url(#lg-milk)" stroke="#3a342a" stroke-width="0.4"/>
    <line x1="4" y1="56" x2="14" y2="56" stroke="#7a6a48" stroke-width="0.3" opacity="0.7"/>
  </g>
</svg>
