<svg xmlns="http://www.w3.org/2000/svg" viewBox="0 0 64 64">
  <defs>
    <linearGradient id="lg-wall" x1="0" y1="0" x2="0.6" y2="1">
      <stop offset="0" stop-color="#e8d2a4"/>
      <stop offset="1" stop-color="#806237"/>
    </linearGradient>
    <linearGradient id="lg-thatch" x1="0" y1="0" x2="0" y2="1">
      <stop offset="0" stop-color="#c89858"/>
      <stop offset="1" stop-color="#6e4a1c"/>
    </linearGradient>
    <linearGradient id="lg-field" x1="0" y1="0" x2="0" y2="1">
      <stop offset="0" stop-color="#a8a85a"/>
      <stop offset="1" stop-color="#6e6a2a"/>
    </linearGradient>
    <filter id="nz" x="0" y="0" width="1" height="1">
      <feTurbulence type="fractalNoise" baseFrequency="1.2" numOctaves="2" seed="2"/>
      <feColorMatrix values="0 0 0 0 0  0 0 0 0 0  0 0 0 0 0  0 0 0 0.22 0"/>
      <feComposite in2="SourceGraphic" operator="in"/>
    </filter>
    <filter id="ds" x="-30%" y="-30%" width="160%" height="160%">
      <feGaussianBlur in="SourceAlpha" stdDeviation="0.7"/>
      <feOffset dx="0.6" dy="1.2"/>
      <feComponentTransfer><feFuncA type="linear" slope="0.5"/></feComponentTransfer>
      <feMerge><feMergeNode/><feMergeNode in="SourceGraphic"/></feMerge>
    </filter>
  </defs>
  <!-- field -->
  <rect x="2" y="44" width="60" height="18" rx="2" fill="url(#lg-field)"/>
  <rect x="2" y="44" width="60" height="18" rx="2" fill="#3e3a14" filter="url(#nz)" opacity="0.5"/>
  <g stroke="#3e3a14" stroke-width="0.5" opacity="0.7">
    <line x1="6" y1="49" x2="60" y2="49"/>
    <line x1="6" y1="54" x2="60" y2="54"/>
    <line x1="6" y1="58" x2="60" y2="58"/>
  </g>
  <g stroke="#cad06e" stroke-width="0.3" opacity="0.7">
    <line x1="6" y1="48" x2="60" y2="48"/>
    <line x1="6" y1="53" x2="60" y2="53"/>
    <line x1="6" y1="57" x2="60" y2="57"/>
  </g>
  <g filter="url(#ds)">
    <!-- barn body -->
    <rect x="14" y="28" width="22" height="20" fill="url(#lg-wall)" stroke="#5a3e1c" stroke-width="0.5"/>
    <!-- thatched roof -->
    <polygon points="12,28 38,28 32,16 18,16" fill="url(#lg-thatch)" stroke="#4d2e10" stroke-width="0.5"/>
    <!-- roof ridge -->
    <line x1="18" y1="16" x2="32" y2="16" stroke="#4d2e10" stroke-width="0.7"/>
    <!-- door -->
    <rect x="22" y="36" width="6" height="12" fill="#4a3018"/>
    <!-- window -->
    <rect x="30" y="32" width="3" height="3" fill="#3a2814"/>
    <!-- wheat sheaf to the right -->
    <g transform="translate(48 30)">
      <line x1="-3" y1="14" x2="-2" y2="-2" stroke="#c8a04a" stroke-width="0.8"/>
      <line x1="0" y1="14" x2="0" y2="-4" stroke="#c8a04a" stroke-width="0.8"/>
      <line x1="3" y1="14" x2="2" y2="-2" stroke="#c8a04a" stroke-width="0.8"/>
      <line x1="-4" y1="9" x2="4" y2="9" stroke="#6a4a18" stroke-width="0.8"/>
      <ellipse cx="-2" cy="-3" rx="1.5" ry="3" fill="#e0c074"/>
      <ellipse cx="0" cy="-5" rx="1.5" ry="3" fill="#e0c074"/>
      <ellipse cx="2" cy="-3" rx="1.5" ry="3" fill="#e0c074"/>
    </g>
  </g>
</svg>
