<svg xmlns="http://www.w3.org/2000/svg" viewBox="0 0 64 64">
  <defs>
    <linearGradient id="lg-wall" x1="0" y1="0" x2="0.6" y2="1">
      <stop offset="0" stop-color="#bca87a"/>
      <stop offset="1" stop-color="#6a523a"/>
    </linearGradient>
    <linearGradient id="lg-roof" x1="0" y1="0" x2="0" y2="1">
      <stop offset="0" stop-color="#7a4e30"/>
      <stop offset="1" stop-color="#3a200e"/>
    </linearGradient>
    <linearGradient id="lg-water" x1="0" y1="0" x2="0" y2="1">
      <stop offset="0" stop-color="#5e92b8"/>
      <stop offset="1" stop-color="#1f4a6a"/>
    </linearGradient>
    <linearGradient id="lg-fish" x1="0" y1="0" x2="0.4" y2="1">
      <stop offset="0" stop-color="#a8bcc6"/>
      <stop offset="1" stop-color="#4a5e6a"/>
    </linearGradient>
    <filter id="nz" x="0" y="0" width="1" height="1">
      <feTurbulence type="fractalNoise" baseFrequency="1.0" numOctaves="2" seed="45"/>
      <feColorMatrix values="0 0 0 0 0  0 0 0 0 0  0 0 0 0 0  0 0 0 0.18 0"/>
      <feComposite in2="SourceGraphic" operator="in"/>
    </filter>
    <filter id="ds" x="-30%" y="-30%" width="160%" height="160%">
      <feGaussianBlur in="SourceAlpha" stdDeviation="0.6"/>
      <feOffset dx="0.5" dy="1"/>
      <feComponentTransfer><feFuncA type="linear" slope="0.55"/></feComponentTransfer>
      <feMerge><feMergeNode/><feMergeNode in="SourceGraphic"/></feMerge>
    </filter>
  </defs>
  <!-- water -->
  <rect x="2" y="44" width="60" height="18" rx="2" fill="url(#lg-water)"/>
  <rect x="2" y="44" width="60" height="18" rx="2" fill="#0e2a44" filter="url(#nz)" opacity="0.4"/>
  <g stroke="#a8c8d8" stroke-width="0.4" fill="none" opacity="0.7">
    <path d="M 6 50 Q 10 48 14 50"/>
    <path d="M 22 52 Q 26 50 30 52"/>
    <path d="M 38 50 Q 42 48 46 50"/>
    <path d="M 50 54 Q 54 52 58 54"/>
    <path d="M 6 58 Q 10 56 14 58"/>
  </g>
  <g filter="url(#ds)">
    <!-- pier piles -->
    <rect x="14" y="40" width="2" height="14" fill="#3a2010"/>
    <rect x="34" y="40" width="2" height="14" fill="#3a2010"/>
    <!-- dock -->
    <rect x="10" y="38" width="32" height="4" fill="#7a5a2a" stroke="#1f1408" stroke-width="0.4"/>
    <!-- dockside hut -->
    <rect x="12" y="22" width="20" height="16" fill="url(#lg-wall)" stroke="#3a2814" stroke-width="0.5"/>
    <polygon points="10,22 34,22 28,12 16,12" fill="url(#lg-roof)" stroke="#2a1408" stroke-width="0.5"/>
    <rect x="18" y="28" width="6" height="10" fill="#3a2814"/>
    <rect x="14" y="26" width="3" height="3" fill="#3a2814"/>
    <!-- boat tied to dock -->
    <path d="M 38 42 L 60 42 L 56 48 L 42 48 Z" fill="#6a4a26" stroke="#1f1408" stroke-width="0.5"/>
    <line x1="42" y1="44" x2="58" y2="44" stroke="#3a2814" stroke-width="0.4"/>
    <line x1="44" y1="46" x2="56" y2="46" stroke="#3a2814" stroke-width="0.4"/>
    <!-- mast -->
    <rect x="48" y="28" width="1.5" height="14" fill="#3a2814"/>
    <!-- net hanging -->
    <g stroke="#dac08e" stroke-width="0.3" opacity="0.85">
      <path d="M 36 38 L 36 22 L 52 22"/>
      <path d="M 36 26 L 50 26"/>
      <path d="M 36 30 L 50 30"/>
      <path d="M 36 34 L 50 34"/>
      <path d="M 40 22 L 40 36"/>
      <path d="M 44 22 L 44 36"/>
      <path d="M 48 22 L 48 36"/>
    </g>
  </g>
  <!-- fish jumping -->
  <g fill="url(#lg-fish)" stroke="#1a2832" stroke-width="0.3">
    <path d="M 50 56 L 56 54 L 58 56 L 56 58 Z"/>
    <path d="M 58 56 L 60 54 L 60 58 Z"/>
    <path d="M 22 60 L 28 58 L 30 60 L 28 62 Z"/>
  </g>
</svg>
