<svg xmlns="http://www.w3.org/2000/svg" viewBox="0 0 64 64">
  <defs>
    <linearGradient id="lg-wall" x1="0" y1="0" x2="0.6" y2="1">
      <stop offset="0" stop-color="#d8c294"/>
      <stop offset="1" stop-color="#7a5e36"/>
    </linearGradient>
    <linearGradient id="lg-roof" x1="0" y1="0" x2="0" y2="1">
      <stop offset="0" stop-color="#c89858"/>
      <stop offset="1" stop-color="#6e4a1c"/>
    </linearGradient>
    <linearGradient id="lg-sack" x1="0" y1="0" x2="0.5" y2="1">
      <stop offset="0" stop-color="#cca06a"/>
      <stop offset="1" stop-color="#6e4d22"/>
    </linearGradient>
    <filter id="nz" x="0" y="0" width="1" height="1">
      <feTurbulence type="fractalNoise" baseFrequency="0.95" numOctaves="2" seed="25"/>
      <feColorMatrix values="0 0 0 0 0  0 0 0 0 0  0 0 0 0 0  0 0 0 0.18 0"/>
      <feComposite in2="SourceGraphic" operator="in"/>
    </filter>
    <filter id="ds" x="-30%" y="-30%" width="160%" height="160%">
      <feGaussianBlur in="SourceAlpha" stdDeviation="0.6"/>
      <feOffset dx="0.5" dy="1"/>
      <feComponentTransfer><feFuncA type="linear" slope="0.55"/></feComponentTransfer>
      <feMerge><feMergeNode/><feMergeNode in="SourceGraphic"/></feMerge>
    </filter>
  </defs>
  <rect x="2" y="48" width="60" height="14" rx="2" fill="#6a563a"/>
  <rect x="2" y="48" width="60" height="14" rx="2" fill="#2a2010" filter="url(#nz)" opacity="0.4"/>
  <g filter="url(#ds)">
    <!-- granary body (raised on stones) -->
    <rect x="14" y="24" width="36" height="22" fill="url(#lg-wall)" stroke="#3a2814" stroke-width="0.5"/>
    <!-- thatched gambrel roof -->
    <polygon points="12,24 52,24 46,12 18,12" fill="url(#lg-roof)" stroke="#4d2e10" stroke-width="0.5"/>
    <!-- thatch lines -->
    <g stroke="#4d2e10" stroke-width="0.3" opacity="0.6">
      <line x1="18" y1="16" x2="46" y2="16"/>
      <line x1="16" y1="20" x2="48" y2="20"/>
    </g>
    <!-- raised stone pads (rodent stoppers) -->
    <ellipse cx="18" cy="48" rx="2" ry="1.4" fill="#7a7268"/>
    <ellipse cx="32" cy="48" rx="2" ry="1.4" fill="#7a7268"/>
    <ellipse cx="46" cy="48" rx="2" ry="1.4" fill="#7a7268"/>
    <!-- door -->
    <rect x="28" y="32" width="8" height="14" fill="#3a2814"/>
    <line x1="32" y1="32" x2="32" y2="46" stroke="#1a0e04" stroke-width="0.4"/>
    <!-- windows / ventilation slits -->
    <rect x="18" y="28" width="3" height="4" fill="#3a2814"/>
    <rect x="42" y="28" width="3" height="4" fill="#3a2814"/>
    <!-- plank texture on body -->
    <g stroke="#7a5e36" stroke-width="0.3" opacity="0.5">
      <line x1="14" y1="30" x2="50" y2="30"/>
      <line x1="14" y1="36" x2="50" y2="36"/>
      <line x1="14" y1="42" x2="50" y2="42"/>
    </g>
  </g>
  <!-- grain sacks at front -->
  <g>
    <path d="M 5 52 Q 4 50 6 49 Q 8 48 10 50 L 12 60 L 4 60 Z" fill="url(#lg-sack)" stroke="#3a2814" stroke-width="0.4"/>
    <rect x="6" y="49" width="2" height="2" fill="#3a2814"/>
    <path d="M 53 52 Q 52 50 54 49 Q 56 48 58 50 L 60 60 L 52 60 Z" fill="url(#lg-sack)" stroke="#3a2814" stroke-width="0.4"/>
    <rect x="54" y="49" width="2" height="2" fill="#3a2814"/>
  </g>
</svg>
