<svg xmlns="http://www.w3.org/2000/svg" viewBox="0 0 64 64">
  <defs>
    <linearGradient id="lg-wall" x1="0" y1="0" x2="0.6" y2="1">
      <stop offset="0" stop-color="#d8c294"/>
      <stop offset="1" stop-color="#7a5e36"/>
    </linearGradient>
    <linearGradient id="lg-roof" x1="0" y1="0" x2="0" y2="1">
      <stop offset="0" stop-color="#8a4a26"/>
      <stop offset="1" stop-color="#3a1c0c"/>
    </linearGradient>
    <linearGradient id="lg-water" x1="0" y1="0" x2="0" y2="1">
      <stop offset="0" stop-color="#5e92b8"/>
      <stop offset="1" stop-color="#1f4a6a"/>
    </linearGradient>
    <filter id="nz" x="0" y="0" width="1" height="1">
      <feTurbulence type="fractalNoise" baseFrequency="1.0" numOctaves="2" seed="13"/>
      <feColorMatrix values="0 0 0 0 0  0 0 0 0 0  0 0 0 0 0  0 0 0 0.18 0"/>
      <feComposite in2="SourceGraphic" operator="in"/>
    </filter>
    <filter id="ds" x="-30%" y="-30%" width="160%" height="160%">
      <feGaussianBlur in="SourceAlpha" stdDeviation="0.6"/>
      <feOffset dx="0.5" dy="1"/>
      <feComponentTransfer><feFuncA type="linear" slope="0.55"/></feComponentTransfer>
      <feMerge><feMergeNode/><feMergeNode in="SourceGraphic"/></feMerge>
    </filter>
  </defs>
  <!-- water under wheel -->
  <rect x="2" y="48" width="60" height="14" rx="2" fill="url(#lg-water)"/>
  <rect x="2" y="48" width="60" height="14" rx="2" fill="#0e2a44" filter="url(#nz)" opacity="0.4"/>
  <g stroke="#a8c8d8" stroke-width="0.4" fill="none" opacity="0.7">
    <path d="M 6 54 Q 10 52 14 54"/>
    <path d="M 22 56 Q 26 54 30 56"/>
    <path d="M 38 54 Q 42 52 46 54"/>
    <path d="M 50 58 Q 54 56 58 58"/>
  </g>
  <g filter="url(#ds)">
    <!-- mill house -->
    <rect x="14" y="22" width="24" height="26" fill="url(#lg-wall)" stroke="#3a2814" stroke-width="0.5"/>
    <!-- roof -->
    <polygon points="12,22 40,22 34,12 18,12" fill="url(#lg-roof)" stroke="#2a1408" stroke-width="0.5"/>
    <!-- door -->
    <rect x="22" y="32" width="6" height="16" fill="#3a2814"/>
    <rect x="17" y="26" width="3" height="3" fill="#3a2814"/>
    <rect x="32" y="26" width="3" height="3" fill="#3a2814"/>
    <!-- waterwheel -->
    <circle cx="50" cy="38" r="11" fill="none" stroke="#5a3e1c" stroke-width="1.5"/>
    <circle cx="50" cy="38" r="9" fill="none" stroke="#3a2814" stroke-width="0.6"/>
    <g stroke="#5a3e1c" stroke-width="1">
      <line x1="50" y1="27" x2="50" y2="49"/>
      <line x1="39" y1="38" x2="61" y2="38"/>
      <line x1="42" y1="30" x2="58" y2="46"/>
      <line x1="42" y1="46" x2="58" y2="30"/>
    </g>
    <circle cx="50" cy="38" r="2" fill="#3a2814"/>
    <!-- paddles -->
    <g fill="#5a3e1c">
      <rect x="49" y="27" width="2" height="3"/>
      <rect x="49" y="46" width="2" height="3"/>
      <rect x="59" y="37" width="3" height="2"/>
      <rect x="39" y="37" width="3" height="2"/>
    </g>
  </g>
  <!-- droplets falling -->
  <g fill="#a8c8d8" opacity="0.85">
    <circle cx="46" cy="50" r="0.5"/>
    <circle cx="54" cy="50" r="0.5"/>
    <circle cx="50" cy="52" r="0.4"/>
  </g>
</svg>
