<svg xmlns="http://www.w3.org/2000/svg" viewBox="0 0 64 64">
  <defs>
    <linearGradient id="lg-wall" x1="0" y1="0" x2="0.6" y2="1">
      <stop offset="0" stop-color="#d8c294"/>
      <stop offset="1" stop-color="#7a5e36"/>
    </linearGradient>
    <linearGradient id="lg-roof" x1="0" y1="0" x2="0" y2="1">
      <stop offset="0" stop-color="#7a4e30"/>
      <stop offset="1" stop-color="#3a200e"/>
    </linearGradient>
    <linearGradient id="lg-amphora" x1="0" y1="0" x2="0.4" y2="1">
      <stop offset="0" stop-color="#6e8a3a"/>
      <stop offset="1" stop-color="#2a3a14"/>
    </linearGradient>
    <radialGradient id="lg-millstone" cx="0.4" cy="0.4" r="0.6">
      <stop offset="0" stop-color="#9a9082"/>
      <stop offset="1" stop-color="#3e3a32"/>
    </radialGradient>
    <filter id="nz" x="0" y="0" width="1" height="1">
      <feTurbulence type="fractalNoise" baseFrequency="1.0" numOctaves="2" seed="39"/>
      <feColorMatrix values="0 0 0 0 0  0 0 0 0 0  0 0 0 0 0  0 0 0 0.18 0"/>
      <feComposite in2="SourceGraphic" operator="in"/>
    </filter>
    <filter id="ds" x="-30%" y="-30%" width="160%" height="160%">
      <feGaussianBlur in="SourceAlpha" stdDeviation="0.6"/>
      <feOffset dx="0.5" dy="1"/>
      <feComponentTransfer><feFuncA type="linear" slope="0.55"/></feComponentTransfer>
      <feMerge><feMergeNode/><feMergeNode in="SourceGraphic"/></feMerge>
    </filter>
  </defs>
  <rect x="2" y="48" width="60" height="14" rx="2" fill="#6a563a"/>
  <rect x="2" y="48" width="60" height="14" rx="2" fill="#2a2010" filter="url(#nz)" opacity="0.4"/>
  <g filter="url(#ds)">
    <rect x="6" y="24" width="22" height="24" fill="url(#lg-wall)" stroke="#3a2814" stroke-width="0.5"/>
    <polygon points="4,24 30,24 24,14 10,14" fill="url(#lg-roof)" stroke="#2a1408" stroke-width="0.5"/>
    <rect x="14" y="34" width="6" height="14" fill="#3a2814"/>
    <rect x="8" y="28" width="3" height="3" fill="#3a2814"/>
    <rect x="22" y="28" width="3" height="3" fill="#3a2814"/>
    <!-- millstone trough base -->
    <ellipse cx="46" cy="46" rx="14" ry="3" fill="#5a4a30"/>
    <ellipse cx="46" cy="44" rx="14" ry="3" fill="#7a6a48" stroke="#3a3024" stroke-width="0.4"/>
    <!-- crushing wheel (vertical millstone) -->
    <ellipse cx="46" cy="38" rx="6" ry="6" fill="url(#lg-millstone)"/>
    <ellipse cx="46" cy="38" rx="6" ry="6" fill="none" stroke="#1a1a18" stroke-width="0.5"/>
    <line x1="40" y1="38" x2="52" y2="38" stroke="#1a1a18" stroke-width="0.4" opacity="0.7"/>
    <line x1="46" y1="32" x2="46" y2="44" stroke="#1a1a18" stroke-width="0.4" opacity="0.7"/>
    <circle cx="46" cy="38" r="1" fill="#1a1a18"/>
    <!-- center post (axle) -->
    <rect x="44" y="14" width="4" height="24" fill="#3a2814"/>
    <line x1="46" y1="14" x2="46" y2="38" stroke="#1a0e04" stroke-width="0.4"/>
    <!-- olives in trough -->
    <g fill="#6e8a3a">
      <circle cx="36" cy="44" r="1"/>
      <circle cx="40" cy="43" r="0.8"/>
      <circle cx="52" cy="43" r="0.8"/>
      <circle cx="56" cy="44" r="1"/>
    </g>
  </g>
  <!-- green olive-oil amphora at base -->
  <path d="M 4 60 Q 2 56 4 54 L 6 50 L 8 50 L 10 54 Q 12 56 10 60 Z" fill="url(#lg-amphora)" stroke="#1a2008" stroke-width="0.3"/>
  <path d="M 14 60 Q 12 56 14 54 L 16 50 L 18 50 L 20 54 Q 22 56 20 60 Z" fill="url(#lg-amphora)" stroke="#1a2008" stroke-width="0.3"/>
</svg>
