<svg xmlns="http://www.w3.org/2000/svg" viewBox="0 0 64 64">
  <defs>
    <linearGradient id="lg-ground" x1="0" y1="0" x2="0" y2="1">
      <stop offset="0" stop-color="#8aa848"/>
      <stop offset="1" stop-color="#506b22"/>
    </linearGradient>
    <radialGradient id="lg-canopy" cx="0.35" cy="0.35" r="0.6">
      <stop offset="0" stop-color="#88c060"/>
      <stop offset="0.6" stop-color="#4a7a32"/>
      <stop offset="1" stop-color="#1e3a14"/>
    </radialGradient>
    <linearGradient id="lg-trunk" x1="0" y1="0" x2="0.4" y2="1">
      <stop offset="0" stop-color="#7a5a2a"/>
      <stop offset="1" stop-color="#3a2010"/>
    </linearGradient>
    <filter id="nz" x="0" y="0" width="1" height="1">
      <feTurbulence type="fractalNoise" baseFrequency="0.95" numOctaves="2" seed="51"/>
      <feColorMatrix values="0 0 0 0 0  0 0 0 0 0  0 0 0 0 0  0 0 0 0.18 0"/>
      <feComposite in2="SourceGraphic" operator="in"/>
    </filter>
    <filter id="ds" x="-30%" y="-30%" width="160%" height="160%">
      <feGaussianBlur in="SourceAlpha" stdDeviation="0.6"/>
      <feOffset dx="0.5" dy="1"/>
      <feComponentTransfer><feFuncA type="linear" slope="0.55"/></feComponentTransfer>
      <feMerge><feMergeNode/><feMergeNode in="SourceGraphic"/></feMerge>
    </filter>
  </defs>
  <rect x="2" y="14" width="60" height="48" rx="2" fill="url(#lg-ground)"/>
  <rect x="2" y="14" width="60" height="48" rx="2" fill="#1f2c0e" filter="url(#nz)" opacity="0.4"/>
  <g fill="#1a2a08" opacity="0.45">
    <ellipse cx="16" cy="34" rx="9" ry="3"/>
    <ellipse cx="44" cy="34" rx="9" ry="3"/>
    <ellipse cx="28" cy="56" rx="8" ry="3"/>
    <ellipse cx="52" cy="56" rx="7" ry="2.5"/>
  </g>
  <g filter="url(#ds)">
    <g transform="translate(16 20)">
      <rect x="-1" y="10" width="2" height="6" fill="url(#lg-trunk)"/>
      <ellipse cx="0" cy="8" rx="10" ry="10" fill="url(#lg-canopy)"/>
      <ellipse cx="-3" cy="4" rx="4" ry="4" fill="#a8d878" opacity="0.7"/>
      <!-- fruits -->
      <circle cx="-3" cy="10" r="0.9" fill="#d8403a"/>
      <circle cx="3" cy="11" r="0.9" fill="#d8403a"/>
      <circle cx="0" cy="14" r="0.9" fill="#d8403a"/>
      <circle cx="-5" cy="6" r="0.7" fill="#d8403a"/>
    </g>
    <g transform="translate(44 22)">
      <rect x="-1" y="8" width="2" height="6" fill="url(#lg-trunk)"/>
      <ellipse cx="0" cy="7" rx="9" ry="9" fill="url(#lg-canopy)"/>
      <ellipse cx="-3" cy="3" rx="4" ry="4" fill="#a8d878" opacity="0.7"/>
      <circle cx="-2" cy="9" r="0.8" fill="#d8403a"/>
      <circle cx="2" cy="10" r="0.8" fill="#d8403a"/>
      <circle cx="4" cy="6" r="0.7" fill="#d8403a"/>
    </g>
    <g transform="translate(28 42)">
      <rect x="-1" y="8" width="2" height="6" fill="url(#lg-trunk)"/>
      <ellipse cx="0" cy="6" rx="8" ry="8" fill="url(#lg-canopy)"/>
      <ellipse cx="-3" cy="3" rx="3.5" ry="3.5" fill="#a8d878" opacity="0.7"/>
      <circle cx="-2" cy="8" r="0.8" fill="#e8b03a"/>
      <circle cx="2" cy="9" r="0.8" fill="#e8b03a"/>
    </g>
    <g transform="translate(52 44)">
      <rect x="-1" y="7" width="2" height="5" fill="url(#lg-trunk)"/>
      <ellipse cx="0" cy="5" rx="7" ry="7" fill="url(#lg-canopy)"/>
      <ellipse cx="-2" cy="3" rx="3" ry="3" fill="#a8d878" opacity="0.7"/>
      <circle cx="-1" cy="7" r="0.7" fill="#e8b03a"/>
    </g>
  </g>
  <!-- fallen apple -->
  <circle cx="22" cy="58" r="1" fill="#c83828"/>
  <line x1="22" y1="57" x2="22" y2="56" stroke="#3a2814" stroke-width="0.3"/>
</svg>
