<svg xmlns="http://www.w3.org/2000/svg" viewBox="0 0 64 64">
  <defs>
    <linearGradient id="lg-wall" x1="0" y1="0" x2="0.6" y2="1">
      <stop offset="0" stop-color="#d8b67c"/>
      <stop offset="1" stop-color="#7a5a30"/>
    </linearGradient>
    <linearGradient id="lg-roof" x1="0" y1="0" x2="0" y2="1">
      <stop offset="0" stop-color="#8a4a26"/>
      <stop offset="1" stop-color="#3a1c0c"/>
    </linearGradient>
    <linearGradient id="lg-clay" x1="0" y1="0" x2="0.4" y2="1">
      <stop offset="0" stop-color="#b56a3a"/>
      <stop offset="1" stop-color="#5a2810"/>
    </linearGradient>
    <linearGradient id="lg-wheel" x1="0" y1="0" x2="0.4" y2="1">
      <stop offset="0" stop-color="#7a5a2a"/>
      <stop offset="1" stop-color="#3a2010"/>
    </linearGradient>
    <filter id="nz" x="0" y="0" width="1" height="1">
      <feTurbulence type="fractalNoise" baseFrequency="1.0" numOctaves="2" seed="21"/>
      <feColorMatrix values="0 0 0 0 0  0 0 0 0 0  0 0 0 0 0  0 0 0 0.18 0"/>
      <feComposite in2="SourceGraphic" operator="in"/>
    </filter>
    <filter id="ds" x="-30%" y="-30%" width="160%" height="160%">
      <feGaussianBlur in="SourceAlpha" stdDeviation="0.6"/>
      <feOffset dx="0.5" dy="1"/>
      <feComponentTransfer><feFuncA type="linear" slope="0.55"/></feComponentTransfer>
      <feMerge><feMergeNode/><feMergeNode in="SourceGraphic"/></feMerge>
    </filter>
  </defs>
  <rect x="2" y="48" width="60" height="14" rx="2" fill="#6a563a"/>
  <rect x="2" y="48" width="60" height="14" rx="2" fill="#2a2010" filter="url(#nz)" opacity="0.4"/>
  <g filter="url(#ds)">
    <!-- workshop -->
    <rect x="6" y="24" width="22" height="24" fill="url(#lg-wall)" stroke="#3a2010" stroke-width="0.5"/>
    <polygon points="4,24 30,24 24,14 10,14" fill="url(#lg-roof)" stroke="#2a1408" stroke-width="0.5"/>
    <rect x="14" y="34" width="6" height="14" fill="#3a2010"/>
    <rect x="8" y="28" width="3" height="3" fill="#3a2010"/>
    <rect x="24" y="28" width="3" height="3" fill="#3a2010"/>
    <!-- potter's wheel (turntable, perspective) -->
    <ellipse cx="44" cy="42" rx="10" ry="3" fill="url(#lg-wheel)" stroke="#2a1408" stroke-width="0.5"/>
    <ellipse cx="44" cy="40" rx="10" ry="3" fill="#8a6a3a"/>
    <ellipse cx="44" cy="40" rx="8" ry="2.2" fill="#5a3e1c"/>
    <!-- pot being thrown -->
    <path d="M 40 40 Q 38 36 40 32 Q 40 28 44 28 Q 48 28 48 32 Q 50 36 48 40 Z" fill="url(#lg-clay)" stroke="#3a1808" stroke-width="0.4"/>
    <ellipse cx="44" cy="28" rx="4" ry="1" fill="#3a1808"/>
    <!-- finished amphora to the side -->
    <path d="M 56 42 Q 54 38 56 34 L 58 26 L 60 26 L 62 34 Q 64 38 62 42 Z" fill="url(#lg-clay)" stroke="#3a1808" stroke-width="0.4"/>
    <line x1="58" y1="28" x2="56" y2="32" stroke="#3a1808" stroke-width="0.4"/>
    <line x1="60" y1="28" x2="62" y2="32" stroke="#3a1808" stroke-width="0.4"/>
  </g>
  <!-- wheel stand -->
  <rect x="42" y="44" width="4" height="6" fill="#3a2010"/>
  <!-- clay pile -->
  <ellipse cx="32" cy="52" rx="4" ry="2" fill="#7a4218"/>
</svg>
