<svg xmlns="http://www.w3.org/2000/svg" viewBox="0 0 64 64">
  <defs>
    <linearGradient id="lg-stone" x1="0" y1="0" x2="0.5" y2="1">
      <stop offset="0" stop-color="#cac0a8"/>
      <stop offset="1" stop-color="#6e6452"/>
    </linearGradient>
    <linearGradient id="lg-pit" x1="0" y1="0" x2="0" y2="1">
      <stop offset="0" stop-color="#6a6048"/>
      <stop offset="1" stop-color="#2a2418"/>
    </linearGradient>
    <filter id="nz" x="0" y="0" width="1" height="1">
      <feTurbulence type="fractalNoise" baseFrequency="0.9" numOctaves="2" seed="7"/>
      <feColorMatrix values="0 0 0 0 0  0 0 0 0 0  0 0 0 0 0  0 0 0 0.25 0"/>
      <feComposite in2="SourceGraphic" operator="in"/>
    </filter>
    <filter id="ds" x="-30%" y="-30%" width="160%" height="160%">
      <feGaussianBlur in="SourceAlpha" stdDeviation="0.6"/>
      <feOffset dx="0.5" dy="1"/>
      <feComponentTransfer><feFuncA type="linear" slope="0.55"/></feComponentTransfer>
      <feMerge><feMergeNode/><feMergeNode in="SourceGraphic"/></feMerge>
    </filter>
  </defs>
  <!-- ground -->
  <rect x="2" y="42" width="60" height="20" rx="2" fill="#86785c"/>
  <rect x="2" y="42" width="60" height="20" rx="2" fill="#3a3018" filter="url(#nz)" opacity="0.45"/>
  <!-- pit (terraced) -->
  <path d="M 8 42 L 56 42 L 50 50 L 50 56 L 14 56 L 14 50 Z" fill="url(#lg-pit)"/>
  <path d="M 14 50 L 50 50" stroke="#3a3020" stroke-width="0.5" opacity="0.8"/>
  <g filter="url(#ds)">
    <!-- finished stone blocks stacked -->
    <rect x="6" y="24" width="14" height="9" fill="url(#lg-stone)" stroke="#3a342a" stroke-width="0.5"/>
    <rect x="20" y="24" width="14" height="9" fill="url(#lg-stone)" stroke="#3a342a" stroke-width="0.5"/>
    <rect x="13" y="33" width="14" height="9" fill="url(#lg-stone)" stroke="#3a342a" stroke-width="0.5"/>
    <!-- column drum -->
    <ellipse cx="50" cy="24" rx="8" ry="2.5" fill="#d0c4a8"/>
    <rect x="42" y="24" width="16" height="12" fill="url(#lg-stone)" stroke="#3a342a" stroke-width="0.5"/>
    <ellipse cx="50" cy="36" rx="8" ry="2.5" fill="#866a4a"/>
  </g>
  <!-- chisel marks -->
  <g stroke="#3a342a" stroke-width="0.3" opacity="0.6">
    <line x1="8" y1="28" x2="14" y2="28"/>
    <line x1="22" y1="28" x2="28" y2="28"/>
    <line x1="46" y1="30" x2="52" y2="30"/>
  </g>
  <!-- chisel + mallet -->
  <line x1="34" y1="56" x2="40" y2="50" stroke="#7a7268" stroke-width="1.4"/>
  <rect x="38" y="48" width="6" height="3" fill="#6a4a26" stroke="#3a2818" stroke-width="0.3"/>
</svg>
