<svg xmlns="http://www.w3.org/2000/svg" viewBox="0 0 64 64">
  <defs>
    <linearGradient id="lg-stone" x1="0" y1="0" x2="0.6" y2="1">
      <stop offset="0" stop-color="#b8a886"/>
      <stop offset="1" stop-color="#5e4e36"/>
    </linearGradient>
    <linearGradient id="lg-ground" x1="0" y1="0" x2="0" y2="1">
      <stop offset="0" stop-color="#7a6a48"/>
      <stop offset="1" stop-color="#3a2e1a"/>
    </linearGradient>
    <filter id="nz" x="0" y="0" width="1" height="1">
      <feTurbulence type="fractalNoise" baseFrequency="1.2" numOctaves="2" seed="67"/>
      <feColorMatrix values="0 0 0 0 0  0 0 0 0 0  0 0 0 0 0  0 0 0 0.22 0"/>
      <feComposite in2="SourceGraphic" operator="in"/>
    </filter>
    <filter id="ds" x="-30%" y="-30%" width="160%" height="160%">
      <feGaussianBlur in="SourceAlpha" stdDeviation="0.5"/>
      <feOffset dx="0.4" dy="0.8"/>
      <feComponentTransfer><feFuncA type="linear" slope="0.5"/></feComponentTransfer>
      <feMerge><feMergeNode/><feMergeNode in="SourceGraphic"/></feMerge>
    </filter>
  </defs>
  <rect x="2" y="14" width="60" height="48" rx="2" fill="url(#lg-ground)"/>
  <rect x="2" y="14" width="60" height="48" rx="2" fill="#2a200c" filter="url(#nz)" opacity="0.4"/>
  <g filter="url(#ds)">
    <!-- raised paved road bed -->
    <rect x="6" y="28" width="52" height="20" fill="url(#lg-stone)" stroke="#3a2814" stroke-width="0.4"/>
    <!-- shadow below road bed -->
    <rect x="6" y="46" width="52" height="3" fill="#3a2e1a" opacity="0.7"/>
    <!-- cobble pattern (irregular polygons) -->
    <g fill="#cabe96" stroke="#3a2814" stroke-width="0.3">
      <polygon points="8,30 14,30 14,34 8,34"/>
      <polygon points="14,30 22,30 22,34 14,34"/>
      <polygon points="22,30 28,30 28,34 22,34"/>
      <polygon points="28,30 36,30 36,34 28,34"/>
      <polygon points="36,30 42,30 42,34 36,34"/>
      <polygon points="42,30 50,30 50,34 42,34"/>
      <polygon points="50,30 56,30 56,34 50,34"/>
      <polygon points="10,34 18,34 18,38 10,38"/>
      <polygon points="18,34 24,34 24,38 18,38"/>
      <polygon points="24,34 32,34 32,38 24,38"/>
      <polygon points="32,34 38,34 38,38 32,38"/>
      <polygon points="38,34 46,34 46,38 38,38"/>
      <polygon points="46,34 54,34 54,38 46,38"/>
      <polygon points="8,38 16,38 16,42 8,42"/>
      <polygon points="16,38 22,38 22,42 16,42"/>
      <polygon points="22,38 30,38 30,42 22,42"/>
      <polygon points="30,38 36,38 36,42 30,42"/>
      <polygon points="36,38 44,38 44,42 36,42"/>
      <polygon points="44,38 50,38 50,42 44,42"/>
      <polygon points="50,38 56,38 56,42 50,42"/>
      <polygon points="10,42 18,42 18,46 10,46"/>
      <polygon points="18,42 26,42 26,46 18,46"/>
      <polygon points="26,42 32,42 32,46 26,46"/>
      <polygon points="32,42 40,42 40,46 32,46"/>
      <polygon points="40,42 46,42 46,46 40,46"/>
      <polygon points="46,42 54,42 54,46 46,46"/>
    </g>
    <!-- center wear line -->
    <line x1="6" y1="38" x2="58" y2="38" stroke="#3a2814" stroke-width="0.4" opacity="0.5"/>
  </g>
  <!-- milestone -->
  <rect x="56" y="20" width="3" height="8" fill="url(#lg-stone)" stroke="#3a2814" stroke-width="0.3"/>
  <line x1="57.5" y1="22" x2="57.5" y2="26" stroke="#3a2814" stroke-width="0.3"/>
  <line x1="56.5" y1="23" x2="58.5" y2="23" stroke="#3a2814" stroke-width="0.2"/>
  <line x1="56.5" y1="25" x2="58.5" y2="25" stroke="#3a2814" stroke-width="0.2"/>
</svg>
