<svg xmlns="http://www.w3.org/2000/svg" viewBox="0 0 64 64">
  <defs>
    <linearGradient id="lg-wood" x1="0" y1="0" x2="0.6" y2="1">
      <stop offset="0" stop-color="#a8763e"/>
      <stop offset="1" stop-color="#5a3a1c"/>
    </linearGradient>
    <linearGradient id="lg-roof" x1="0" y1="0" x2="0" y2="1">
      <stop offset="0" stop-color="#8a6240"/>
      <stop offset="1" stop-color="#3a2410"/>
    </linearGradient>
    <linearGradient id="lg-blade" x1="0" y1="0" x2="0.5" y2="1">
      <stop offset="0" stop-color="#dfdfdf"/>
      <stop offset="1" stop-color="#7a7a7a"/>
    </linearGradient>
    <filter id="nz" x="0" y="0" width="1" height="1">
      <feTurbulence type="fractalNoise" baseFrequency="1.0" numOctaves="2" seed="11"/>
      <feColorMatrix values="0 0 0 0 0  0 0 0 0 0  0 0 0 0 0  0 0 0 0.18 0"/>
      <feComposite in2="SourceGraphic" operator="in"/>
    </filter>
    <filter id="ds" x="-30%" y="-30%" width="160%" height="160%">
      <feGaussianBlur in="SourceAlpha" stdDeviation="0.6"/>
      <feOffset dx="0.5" dy="1"/>
      <feComponentTransfer><feFuncA type="linear" slope="0.55"/></feComponentTransfer>
      <feMerge><feMergeNode/><feMergeNode in="SourceGraphic"/></feMerge>
    </filter>
  </defs>
  <!-- ground -->
  <rect x="2" y="48" width="60" height="14" rx="2" fill="#5a4a2e"/>
  <rect x="2" y="48" width="60" height="14" rx="2" fill="#2a1f10" filter="url(#nz)" opacity="0.4"/>
  <g filter="url(#ds)">
    <!-- mill body -->
    <rect x="10" y="26" width="32" height="22" fill="url(#lg-wood)" stroke="#3a2010" stroke-width="0.5"/>
    <!-- plank texture -->
    <line x1="10" y1="32" x2="42" y2="32" stroke="#3a2010" stroke-width="0.4" opacity="0.6"/>
    <line x1="10" y1="38" x2="42" y2="38" stroke="#3a2010" stroke-width="0.4" opacity="0.6"/>
    <line x1="20" y1="26" x2="20" y2="48" stroke="#3a2010" stroke-width="0.4" opacity="0.5"/>
    <line x1="32" y1="26" x2="32" y2="48" stroke="#3a2010" stroke-width="0.4" opacity="0.5"/>
    <!-- roof -->
    <polygon points="8,26 44,26 38,16 14,16" fill="url(#lg-roof)" stroke="#2a1408" stroke-width="0.5"/>
    <line x1="14" y1="16" x2="38" y2="16" stroke="#2a1408" stroke-width="0.5"/>
    <!-- door + window -->
    <rect x="22" y="36" width="6" height="12" fill="#2a1408"/>
    <rect x="14" y="30" width="3" height="3" fill="#3a2010"/>
    <rect x="36" y="30" width="3" height="3" fill="#3a2010"/>
    <!-- circular saw blade on side -->
    <circle cx="50" cy="36" r="9" fill="url(#lg-blade)" stroke="#3a3a3a" stroke-width="0.5"/>
    <g stroke="#3a3a3a" stroke-width="0.5">
      <line x1="50" y1="27" x2="50" y2="45"/>
      <line x1="41" y1="36" x2="59" y2="36"/>
      <line x1="44" y1="30" x2="56" y2="42"/>
      <line x1="44" y1="42" x2="56" y2="30"/>
    </g>
    <!-- saw teeth -->
    <polygon points="41,36 39,34 39,38" fill="#9a9a9a"/>
    <polygon points="59,36 61,34 61,38" fill="#9a9a9a"/>
    <polygon points="50,27 48,25 52,25" fill="#9a9a9a"/>
    <polygon points="50,45 48,47 52,47" fill="#9a9a9a"/>
    <circle cx="50" cy="36" r="1.5" fill="#3a3a3a"/>
  </g>
  <!-- planks stack -->
  <rect x="6" y="52" width="20" height="2" fill="#8a6240"/>
  <rect x="6" y="55" width="20" height="2" fill="#a8763e"/>
  <rect x="6" y="58" width="20" height="2" fill="#8a6240"/>
  <!-- sawdust -->
  <g fill="#c89858" opacity="0.7">
    <circle cx="50" cy="52" r="0.5"/>
    <circle cx="52" cy="54" r="0.4"/>
    <circle cx="48" cy="54" r="0.4"/>
    <circle cx="54" cy="56" r="0.5"/>
    <circle cx="46" cy="56" r="0.4"/>
  </g>
</svg>
