<svg xmlns="http://www.w3.org/2000/svg" viewBox="0 0 64 64">
  <defs>
    <linearGradient id="lg-wall" x1="0" y1="0" x2="0.6" y2="1">
      <stop offset="0" stop-color="#d8c294"/>
      <stop offset="1" stop-color="#7a5e36"/>
    </linearGradient>
    <linearGradient id="lg-roof" x1="0" y1="0" x2="0" y2="1">
      <stop offset="0" stop-color="#7a4e30"/>
      <stop offset="1" stop-color="#3a200e"/>
    </linearGradient>
    <linearGradient id="lg-garment" x1="0" y1="0" x2="0.4" y2="1">
      <stop offset="0" stop-color="#6a4a8a"/>
      <stop offset="1" stop-color="#2a1a44"/>
    </linearGradient>
    <filter id="nz" x="0" y="0" width="1" height="1">
      <feTurbulence type="fractalNoise" baseFrequency="1.0" numOctaves="2" seed="35"/>
      <feColorMatrix values="0 0 0 0 0  0 0 0 0 0  0 0 0 0 0  0 0 0 0.18 0"/>
      <feComposite in2="SourceGraphic" operator="in"/>
    </filter>
    <filter id="ds" x="-30%" y="-30%" width="160%" height="160%">
      <feGaussianBlur in="SourceAlpha" stdDeviation="0.6"/>
      <feOffset dx="0.5" dy="1"/>
      <feComponentTransfer><feFuncA type="linear" slope="0.55"/></feComponentTransfer>
      <feMerge><feMergeNode/><feMergeNode in="SourceGraphic"/></feMerge>
    </filter>
  </defs>
  <rect x="2" y="48" width="60" height="14" rx="2" fill="#6a563a"/>
  <rect x="2" y="48" width="60" height="14" rx="2" fill="#2a2010" filter="url(#nz)" opacity="0.4"/>
  <g filter="url(#ds)">
    <rect x="8" y="22" width="48" height="26" fill="url(#lg-wall)" stroke="#3a2814" stroke-width="0.5"/>
    <polygon points="6,22 58,22 50,10 14,10" fill="url(#lg-roof)" stroke="#2a1408" stroke-width="0.5"/>
    <!-- door -->
    <rect x="28" y="34" width="8" height="14" fill="#3a2814"/>
    <line x1="32" y1="34" x2="32" y2="48" stroke="#1a0e04" stroke-width="0.4"/>
    <!-- shop awning -->
    <path d="M 16 26 L 28 26 L 26 30 L 18 30 Z" fill="#a83828" stroke="#3a1408" stroke-width="0.4"/>
    <line x1="18" y1="26" x2="20" y2="30" stroke="#fff" stroke-width="0.3" opacity="0.6"/>
    <line x1="22" y1="26" x2="22" y2="30" stroke="#fff" stroke-width="0.3" opacity="0.6"/>
    <!-- right awning -->
    <path d="M 36 26 L 48 26 L 46 30 L 38 30 Z" fill="#a83828" stroke="#3a1408" stroke-width="0.4"/>
    <!-- garment hanging in window left -->
    <rect x="14" y="32" width="12" height="14" fill="#1a0e04"/>
    <path d="M 16 33 Q 20 32 24 33 L 24 44 L 16 44 Z" fill="url(#lg-garment)"/>
    <path d="M 18 33 L 22 33 L 22 36 L 18 36 Z" fill="#daca7a" opacity="0.8"/>
    <!-- garment in window right -->
    <rect x="38" y="32" width="12" height="14" fill="#1a0e04"/>
    <path d="M 40 33 Q 44 32 48 33 L 48 44 L 40 44 Z" fill="#7a3a52"/>
    <path d="M 42 33 L 46 33 L 46 36 L 42 36 Z" fill="#daca7a" opacity="0.8"/>
  </g>
  <!-- scissors on ground -->
  <g stroke="#3a3a42" stroke-width="0.6">
    <line x1="14" y1="56" x2="22" y2="60"/>
    <line x1="14" y1="60" x2="22" y2="56"/>
  </g>
  <circle cx="14" cy="56" r="1" fill="#cabe6c"/>
  <circle cx="14" cy="60" r="1" fill="#cabe6c"/>
  <!-- thimble -->
  <path d="M 50 56 L 54 56 L 53 60 L 51 60 Z" fill="#a89868" stroke="#3a342a" stroke-width="0.3"/>
  <g fill="#3a342a" opacity="0.6">
    <circle cx="51" cy="57" r="0.3"/>
    <circle cx="53" cy="57" r="0.3"/>
    <circle cx="52" cy="58" r="0.3"/>
  </g>
</svg>
