<svg xmlns="http://www.w3.org/2000/svg" viewBox="0 0 64 64">
  <defs>
    <linearGradient id="lg-wall" x1="0" y1="0" x2="0.6" y2="1">
      <stop offset="0" stop-color="#a8845a"/>
      <stop offset="1" stop-color="#4a2e14"/>
    </linearGradient>
    <linearGradient id="lg-roof" x1="0" y1="0" x2="0" y2="1">
      <stop offset="0" stop-color="#7a4e30"/>
      <stop offset="1" stop-color="#3a200e"/>
    </linearGradient>
    <linearGradient id="lg-hide" x1="0" y1="0" x2="0.5" y2="1">
      <stop offset="0" stop-color="#b88a4a"/>
      <stop offset="1" stop-color="#5a3818"/>
    </linearGradient>
    <radialGradient id="lg-vat" cx="0.5" cy="0.4" r="0.5">
      <stop offset="0" stop-color="#5a4a1a"/>
      <stop offset="1" stop-color="#2a1e08"/>
    </radialGradient>
    <filter id="nz" x="0" y="0" width="1" height="1">
      <feTurbulence type="fractalNoise" baseFrequency="1.0" numOctaves="2" seed="43"/>
      <feColorMatrix values="0 0 0 0 0  0 0 0 0 0  0 0 0 0 0  0 0 0 0.2 0"/>
      <feComposite in2="SourceGraphic" operator="in"/>
    </filter>
    <filter id="ds" x="-30%" y="-30%" width="160%" height="160%">
      <feGaussianBlur in="SourceAlpha" stdDeviation="0.6"/>
      <feOffset dx="0.5" dy="1"/>
      <feComponentTransfer><feFuncA type="linear" slope="0.55"/></feComponentTransfer>
      <feMerge><feMergeNode/><feMergeNode in="SourceGraphic"/></feMerge>
    </filter>
  </defs>
  <rect x="2" y="48" width="60" height="14" rx="2" fill="#5a4226"/>
  <rect x="2" y="48" width="60" height="14" rx="2" fill="#1a0e08" filter="url(#nz)" opacity="0.45"/>
  <g filter="url(#ds)">
    <!-- workshop body -->
    <rect x="6" y="26" width="20" height="22" fill="url(#lg-wall)" stroke="#1f1408" stroke-width="0.5"/>
    <polygon points="4,26 28,26 24,16 8,16" fill="url(#lg-roof)" stroke="#1a0e04" stroke-width="0.5"/>
    <rect x="14" y="34" width="6" height="14" fill="#1f1408"/>
    <rect x="8" y="30" width="3" height="3" fill="#1f1408"/>
    <!-- stretched hide on frame -->
    <rect x="32" y="22" width="22" height="20" fill="none" stroke="#3a2010" stroke-width="1.4"/>
    <path d="M 34 24 L 52 24 L 54 30 L 50 40 L 36 40 L 32 30 Z" fill="url(#lg-hide)" stroke="#3a2010" stroke-width="0.4"/>
    <!-- hide stitching at corners -->
    <g stroke="#1f1408" stroke-width="0.4" stroke-linecap="round">
      <line x1="32" y1="22" x2="34" y2="24"/>
      <line x1="54" y1="22" x2="52" y2="24"/>
      <line x1="32" y1="42" x2="36" y2="40"/>
      <line x1="54" y1="42" x2="50" y2="40"/>
    </g>
    <!-- vat in front-left -->
    <ellipse cx="50" cy="50" rx="9" ry="3" fill="#3a2818"/>
    <ellipse cx="50" cy="48" rx="9" ry="3" fill="url(#lg-vat)" stroke="#1a0e04" stroke-width="0.5"/>
    <ellipse cx="50" cy="48" rx="7" ry="2.2" fill="#3a2812" opacity="0.85"/>
  </g>
  <!-- stir stick -->
  <line x1="46" y1="34" x2="50" y2="48" stroke="#5a3e1c" stroke-width="0.8"/>
  <!-- bone tools / awl -->
  <line x1="6" y1="58" x2="16" y2="54" stroke="#cabe6c" stroke-width="0.8"/>
  <ellipse cx="6" cy="58" rx="1" ry="0.8" fill="#3a2814"/>
</svg>
