<svg xmlns="http://www.w3.org/2000/svg" viewBox="0 0 64 64">
  <defs>
    <linearGradient id="lg-ground" x1="0" y1="0" x2="0" y2="1">
      <stop offset="0" stop-color="#8a7846"/>
      <stop offset="1" stop-color="#4a3a18"/>
    </linearGradient>
    <linearGradient id="lg-leaf" x1="0" y1="0" x2="0.5" y2="1">
      <stop offset="0" stop-color="#6a8a3a"/>
      <stop offset="1" stop-color="#2a4014"/>
    </linearGradient>
    <linearGradient id="lg-grape" x1="0" y1="0" x2="0" y2="1">
      <stop offset="0" stop-color="#a86ad4"/>
      <stop offset="1" stop-color="#3e1856"/>
    </linearGradient>
    <filter id="nz" x="0" y="0" width="1" height="1">
      <feTurbulence type="fractalNoise" baseFrequency="0.9" numOctaves="2" seed="47"/>
      <feColorMatrix values="0 0 0 0 0  0 0 0 0 0  0 0 0 0 0  0 0 0 0.2 0"/>
      <feComposite in2="SourceGraphic" operator="in"/>
    </filter>
    <filter id="ds" x="-30%" y="-30%" width="160%" height="160%">
      <feGaussianBlur in="SourceAlpha" stdDeviation="0.5"/>
      <feOffset dx="0.4" dy="0.8"/>
      <feComponentTransfer><feFuncA type="linear" slope="0.55"/></feComponentTransfer>
      <feMerge><feMergeNode/><feMergeNode in="SourceGraphic"/></feMerge>
    </filter>
  </defs>
  <!-- ground / vineyard rows -->
  <rect x="2" y="14" width="60" height="48" rx="2" fill="url(#lg-ground)"/>
  <rect x="2" y="14" width="60" height="48" rx="2" fill="#2a200c" filter="url(#nz)" opacity="0.4"/>
  <g stroke="#3a2814" stroke-width="0.4" fill="none" opacity="0.65">
    <line x1="4" y1="22" x2="62" y2="22"/>
    <line x1="4" y1="38" x2="62" y2="38"/>
    <line x1="4" y1="54" x2="62" y2="54"/>
  </g>
  <g filter="url(#ds)">
    <!-- back row of trellised vines -->
    <g transform="translate(8 16)">
      <rect x="0" y="0" width="1" height="10" fill="#3a2814"/>
      <rect x="-3" y="2" width="7" height="0.6" fill="#3a2814"/>
      <circle cx="0.5" cy="4" r="2.4" fill="url(#lg-leaf)"/>
      <circle cx="-1" cy="2" r="1.6" fill="#5a7a2a" opacity="0.85"/>
      <g fill="url(#lg-grape)"><circle cx="-1" cy="7" r="0.6"/><circle cx="0.5" cy="7.5" r="0.6"/><circle cx="2" cy="7" r="0.6"/><circle cx="0" cy="8.5" r="0.6"/></g>
    </g>
    <g transform="translate(24 16)">
      <rect x="0" y="0" width="1" height="10" fill="#3a2814"/>
      <rect x="-3" y="2" width="7" height="0.6" fill="#3a2814"/>
      <circle cx="0.5" cy="4" r="2.4" fill="url(#lg-leaf)"/>
      <circle cx="1" cy="2" r="1.6" fill="#5a7a2a" opacity="0.85"/>
      <g fill="url(#lg-grape)"><circle cx="-1" cy="7" r="0.6"/><circle cx="0.5" cy="7.5" r="0.6"/><circle cx="2" cy="7" r="0.6"/></g>
    </g>
    <g transform="translate(40 16)">
      <rect x="0" y="0" width="1" height="10" fill="#3a2814"/>
      <rect x="-3" y="2" width="7" height="0.6" fill="#3a2814"/>
      <circle cx="0.5" cy="4" r="2.4" fill="url(#lg-leaf)"/>
      <g fill="url(#lg-grape)"><circle cx="-1" cy="7" r="0.6"/><circle cx="0.5" cy="7.5" r="0.6"/><circle cx="2" cy="7" r="0.6"/><circle cx="0" cy="8.5" r="0.6"/></g>
    </g>
    <g transform="translate(54 16)">
      <rect x="0" y="0" width="1" height="10" fill="#3a2814"/>
      <rect x="-3" y="2" width="7" height="0.6" fill="#3a2814"/>
      <circle cx="0.5" cy="4" r="2.4" fill="url(#lg-leaf)"/>
    </g>
    <!-- middle row (larger) -->
    <g transform="translate(14 30)">
      <rect x="0" y="0" width="1.4" height="14" fill="#3a2814"/>
      <rect x="-5" y="3" width="11" height="0.8" fill="#3a2814"/>
      <circle cx="0.7" cy="5" r="3.5" fill="url(#lg-leaf)"/>
      <circle cx="-1.5" cy="3" rx="2.2" r="2.2" fill="#5a7a2a"/>
      <circle cx="3" cy="4" r="2" fill="#7a9a3a"/>
      <g fill="url(#lg-grape)"><circle cx="-2" cy="10" r="0.8"/><circle cx="0" cy="10.5" r="0.8"/><circle cx="2" cy="10" r="0.8"/><circle cx="-1" cy="12" r="0.8"/><circle cx="1.2" cy="12" r="0.8"/><circle cx="0" cy="13.5" r="0.8"/></g>
    </g>
    <g transform="translate(34 30)">
      <rect x="0" y="0" width="1.4" height="14" fill="#3a2814"/>
      <rect x="-5" y="3" width="11" height="0.8" fill="#3a2814"/>
      <circle cx="0.7" cy="5" r="3.5" fill="url(#lg-leaf)"/>
      <circle cx="3" cy="3" r="2" fill="#5a7a2a"/>
      <g fill="url(#lg-grape)"><circle cx="-2" cy="10" r="0.8"/><circle cx="0" cy="10.5" r="0.8"/><circle cx="2" cy="10" r="0.8"/><circle cx="-1" cy="12" r="0.8"/><circle cx="1.2" cy="12" r="0.8"/></g>
    </g>
    <g transform="translate(52 30)">
      <rect x="0" y="0" width="1.4" height="14" fill="#3a2814"/>
      <rect x="-5" y="3" width="11" height="0.8" fill="#3a2814"/>
      <circle cx="0.7" cy="5" r="3.5" fill="url(#lg-leaf)"/>
      <g fill="url(#lg-grape)"><circle cx="-2" cy="10" r="0.8"/><circle cx="0" cy="10.5" r="0.8"/><circle cx="2" cy="10" r="0.8"/></g>
    </g>
    <!-- front row -->
    <g transform="translate(10 46)">
      <rect x="0" y="0" width="1.4" height="14" fill="#3a2814"/>
      <circle cx="0.7" cy="3" r="3.5" fill="url(#lg-leaf)"/>
    </g>
    <g transform="translate(28 46)">
      <rect x="0" y="0" width="1.4" height="14" fill="#3a2814"/>
      <circle cx="0.7" cy="3" r="3.5" fill="url(#lg-leaf)"/>
      <g fill="url(#lg-grape)"><circle cx="-1" cy="7" r="0.7"/><circle cx="2" cy="7" r="0.7"/></g>
    </g>
    <g transform="translate(46 46)">
      <rect x="0" y="0" width="1.4" height="14" fill="#3a2814"/>
      <circle cx="0.7" cy="3" r="3.5" fill="url(#lg-leaf)"/>
    </g>
  </g>
</svg>
