<svg xmlns="http://www.w3.org/2000/svg" viewBox="0 0 64 64">
  <defs>
    <linearGradient id="lg-wall" x1="0" y1="0" x2="0.6" y2="1">
      <stop offset="0" stop-color="#c0aa78"/>
      <stop offset="1" stop-color="#6a4d22"/>
    </linearGradient>
    <linearGradient id="lg-roof" x1="0" y1="0" x2="0" y2="1">
      <stop offset="0" stop-color="#7a4e30"/>
      <stop offset="1" stop-color="#3a200e"/>
    </linearGradient>
    <linearGradient id="lg-crate" x1="0" y1="0" x2="0.5" y2="1">
      <stop offset="0" stop-color="#9a6a3a"/>
      <stop offset="1" stop-color="#3e2810"/>
    </linearGradient>
    <filter id="nz" x="0" y="0" width="1" height="1">
      <feTurbulence type="fractalNoise" baseFrequency="0.95" numOctaves="2" seed="27"/>
      <feColorMatrix values="0 0 0 0 0  0 0 0 0 0  0 0 0 0 0  0 0 0 0.18 0"/>
      <feComposite in2="SourceGraphic" operator="in"/>
    </filter>
    <filter id="ds" x="-30%" y="-30%" width="160%" height="160%">
      <feGaussianBlur in="SourceAlpha" stdDeviation="0.6"/>
      <feOffset dx="0.5" dy="1"/>
      <feComponentTransfer><feFuncA type="linear" slope="0.55"/></feComponentTransfer>
      <feMerge><feMergeNode/><feMergeNode in="SourceGraphic"/></feMerge>
    </filter>
  </defs>
  <rect x="2" y="48" width="60" height="14" rx="2" fill="#6a563a"/>
  <rect x="2" y="48" width="60" height="14" rx="2" fill="#2a2010" filter="url(#nz)" opacity="0.4"/>
  <g filter="url(#ds)">
    <!-- long low warehouse -->
    <rect x="6" y="26" width="52" height="22" fill="url(#lg-wall)" stroke="#3a2814" stroke-width="0.5"/>
    <polygon points="4,26 60,26 56,16 8,16" fill="url(#lg-roof)" stroke="#2a1408" stroke-width="0.5"/>
    <!-- roof tile lines -->
    <g stroke="#2a1408" stroke-width="0.3" opacity="0.6">
      <line x1="8" y1="20" x2="56" y2="20"/>
    </g>
    <!-- double doors -->
    <rect x="26" y="32" width="12" height="16" fill="#3a2814"/>
    <line x1="32" y1="32" x2="32" y2="48" stroke="#1a0e04" stroke-width="0.4"/>
    <circle cx="29" cy="40" r="0.7" fill="#a89868"/>
    <circle cx="35" cy="40" r="0.7" fill="#a89868"/>
    <!-- side windows -->
    <rect x="10" y="30" width="4" height="3" fill="#3a2814"/>
    <rect x="18" y="30" width="4" height="3" fill="#3a2814"/>
    <rect x="44" y="30" width="4" height="3" fill="#3a2814"/>
    <rect x="52" y="30" width="4" height="3" fill="#3a2814"/>
    <!-- wall planks -->
    <g stroke="#7a5e36" stroke-width="0.3" opacity="0.5">
      <line x1="6" y1="38" x2="58" y2="38"/>
      <line x1="6" y1="44" x2="58" y2="44"/>
    </g>
  </g>
  <!-- crates piled in front -->
  <g>
    <rect x="6" y="50" width="10" height="8" fill="url(#lg-crate)" stroke="#1f1408" stroke-width="0.4"/>
    <line x1="6" y1="54" x2="16" y2="54" stroke="#1f1408" stroke-width="0.3"/>
    <line x1="11" y1="50" x2="11" y2="58" stroke="#1f1408" stroke-width="0.3"/>
    <rect x="48" y="50" width="10" height="8" fill="url(#lg-crate)" stroke="#1f1408" stroke-width="0.4"/>
    <line x1="48" y1="54" x2="58" y2="54" stroke="#1f1408" stroke-width="0.3"/>
    <line x1="53" y1="50" x2="53" y2="58" stroke="#1f1408" stroke-width="0.3"/>
    <!-- amphora -->
    <path d="M 42 56 Q 40 54 42 52 L 44 48 L 46 48 L 48 52 Q 50 54 48 56 Z" fill="#b56a3a" stroke="#3a1808" stroke-width="0.3"/>
  </g>
</svg>
