<svg xmlns="http://www.w3.org/2000/svg" viewBox="0 0 64 64">
  <defs>
    <linearGradient id="lg-wall" x1="0" y1="0" x2="0.6" y2="1">
      <stop offset="0" stop-color="#d8c294"/>
      <stop offset="1" stop-color="#7a5e36"/>
    </linearGradient>
    <linearGradient id="lg-roof" x1="0" y1="0" x2="0" y2="1">
      <stop offset="0" stop-color="#7a4e30"/>
      <stop offset="1" stop-color="#3a200e"/>
    </linearGradient>
    <linearGradient id="lg-cloth" x1="0" y1="0" x2="0.4" y2="1">
      <stop offset="0" stop-color="#dac08e"/>
      <stop offset="1" stop-color="#8a6a3a"/>
    </linearGradient>
    <filter id="nz" x="0" y="0" width="1" height="1">
      <feTurbulence type="fractalNoise" baseFrequency="1.0" numOctaves="2" seed="33"/>
      <feColorMatrix values="0 0 0 0 0  0 0 0 0 0  0 0 0 0 0  0 0 0 0.18 0"/>
      <feComposite in2="SourceGraphic" operator="in"/>
    </filter>
    <filter id="ds" x="-30%" y="-30%" width="160%" height="160%">
      <feGaussianBlur in="SourceAlpha" stdDeviation="0.6"/>
      <feOffset dx="0.5" dy="1"/>
      <feComponentTransfer><feFuncA type="linear" slope="0.55"/></feComponentTransfer>
      <feMerge><feMergeNode/><feMergeNode in="SourceGraphic"/></feMerge>
    </filter>
  </defs>
  <rect x="2" y="48" width="60" height="14" rx="2" fill="#6a563a"/>
  <rect x="2" y="48" width="60" height="14" rx="2" fill="#2a2010" filter="url(#nz)" opacity="0.4"/>
  <g filter="url(#ds)">
    <rect x="10" y="24" width="26" height="24" fill="url(#lg-wall)" stroke="#3a2814" stroke-width="0.5"/>
    <polygon points="8,24 38,24 32,14 14,14" fill="url(#lg-roof)" stroke="#2a1408" stroke-width="0.5"/>
    <rect x="20" y="34" width="6" height="14" fill="#3a2814"/>
    <rect x="14" y="28" width="3" height="3" fill="#3a2814"/>
    <rect x="30" y="28" width="3" height="3" fill="#3a2814"/>
    <!-- loom on the right (open shed) -->
    <rect x="38" y="22" width="22" height="26" fill="#5a4a32" stroke="#1f1408" stroke-width="0.4"/>
    <!-- loom frame -->
    <g stroke="#3a2814" stroke-width="1.2">
      <line x1="42" y1="22" x2="42" y2="48"/>
      <line x1="56" y1="22" x2="56" y2="48"/>
      <line x1="42" y1="24" x2="56" y2="24"/>
      <line x1="42" y1="46" x2="56" y2="46"/>
    </g>
    <!-- warp threads (vertical) -->
    <g stroke="#dac08e" stroke-width="0.4" opacity="0.85">
      <line x1="45" y1="26" x2="45" y2="44"/>
      <line x1="47" y1="26" x2="47" y2="44"/>
      <line x1="49" y1="26" x2="49" y2="44"/>
      <line x1="51" y1="26" x2="51" y2="44"/>
      <line x1="53" y1="26" x2="53" y2="44"/>
    </g>
    <!-- partial cloth (woven section at bottom) -->
    <rect x="43" y="36" width="12" height="8" fill="url(#lg-cloth)"/>
    <g stroke="#5a4022" stroke-width="0.3" opacity="0.7">
      <line x1="43" y1="38" x2="55" y2="38"/>
      <line x1="43" y1="40" x2="55" y2="40"/>
      <line x1="43" y1="42" x2="55" y2="42"/>
    </g>
    <!-- shuttle -->
    <ellipse cx="49" cy="35" rx="4" ry="1" fill="#7a5a2a" stroke="#3a2010" stroke-width="0.3"/>
  </g>
  <!-- spools / yarn balls -->
  <g>
    <circle cx="6" cy="54" r="3" fill="#bd6a5a"/>
    <circle cx="6" cy="54" r="3" fill="none" stroke="#7a3018" stroke-width="0.3"/>
    <path d="M 4 54 Q 6 52 8 54 Q 6 56 4 54" fill="none" stroke="#7a3018" stroke-width="0.3"/>
    <circle cx="14" cy="56" r="2.5" fill="#5a7d4a"/>
  </g>
</svg>
