<svg xmlns="http://www.w3.org/2000/svg" viewBox="0 0 128 148" preserveAspectRatio="xMidYMid meet">
  <defs><clipPath id="hex"><polygon points="64,0 128,37 128,111 64,148 0,111 0,37"/></clipPath></defs>
  <g clip-path="url(#hex)"><path d="M 99.00 13.30 C 88.50 31.51 67.15 68.54 64.00 74.00 M 29.00 13.30 C 39.50 31.51 60.85 68.54 64.00 74.00 M 29.00 134.70 C 39.50 116.49 60.85 79.46 64.00 74.00" fill="none" stroke="#3a342a" stroke-width="14" stroke-linecap="round" stroke-linejoin="round"/><path d="M 99.00 13.30 C 88.50 31.51 67.15 68.54 64.00 74.00 M 29.00 13.30 C 39.50 31.51 60.85 68.54 64.00 74.00 M 29.00 134.70 C 39.50 116.49 60.85 79.46 64.00 74.00" fill="none" stroke="#a89868" stroke-width="12" stroke-linecap="round" stroke-linejoin="round"/><path d="M 99.00 13.30 C 88.50 31.51 67.15 68.54 64.00 74.00 M 29.00 13.30 C 39.50 31.51 60.85 68.54 64.00 74.00 M 29.00 134.70 C 39.50 116.49 60.85 79.46 64.00 74.00" fill="none" stroke="#5a4e36" stroke-width="0.6" stroke-linecap="round" opacity="0.55"/></g>
</svg>
