<svg xmlns="http://www.w3.org/2000/svg" viewBox="0 0 128 148" preserveAspectRatio="xMidYMid meet">
  <defs>
    <clipPath id="hex"><polygon points="64,0 128,37 128,111 64,148 0,111 0,37"/></clipPath>
    <linearGradient id="lg-stone" x1="0" y1="0" x2="0" y2="1">
      <stop offset="0" stop-color="#cabe96"/>
      <stop offset="1" stop-color="#7a6a48"/>
    </linearGradient>
    <filter id="ds" x="-30%" y="-30%" width="160%" height="160%">
      <feGaussianBlur in="SourceAlpha" stdDeviation="0.5"/>
      <feOffset dx="0.4" dy="0.6"/>
      <feComponentTransfer><feFuncA type="linear" slope="0.55"/></feComponentTransfer>
      <feMerge><feMergeNode/><feMergeNode in="SourceGraphic"/></feMerge>
    </filter>
  </defs>
  <g clip-path="url(#hex)" filter="url(#ds)">
    <polygon points="58,76 68,68 102,120 92,128" fill="url(#lg-stone)"/>
    <line x1="58" y1="76" x2="92" y2="128" stroke="#3a342a" stroke-width="0.6"/>
    <line x1="68" y1="68" x2="102" y2="120" stroke="#3a342a" stroke-width="0.6"/>
    <g stroke="#5a4e36" stroke-width="0.4" opacity="0.7">
      <line x1="63" y1="72" x2="97" y2="124"/>
      <line x1="60" y1="80" x2="70" y2="74"/>
      <line x1="65" y1="88" x2="75" y2="82"/>
      <line x1="71" y1="98" x2="81" y2="92"/>
      <line x1="77" y1="108" x2="87" y2="102"/>
      <line x1="84" y1="118" x2="94" y2="112"/>
    </g>
  </g>
</svg>
