<svg xmlns="http://www.w3.org/2000/svg" viewBox="0 0 128 148" preserveAspectRatio="xMidYMid meet">
  <defs>
    <clipPath id="hex"><polygon points="64,0 128,37 128,111 64,148 0,111 0,37"/></clipPath>
    <linearGradient id="lg-tree" x1="0" y1="0" x2="0.5" y2="1">
      <stop offset="0" stop-color="#3e6a32"/>
      <stop offset="1" stop-color="#0e2008"/>
    </linearGradient>
    <filter id="nz" x="0" y="0" width="1" height="1">
      <feTurbulence type="fractalNoise" baseFrequency="1.1" numOctaves="2" seed="19"/>
      <feColorMatrix values="0 0 0 0 0  0 0 0 0 0  0 0 0 0 0  0 0 0 0.28 0"/>
      <feComposite in2="SourceGraphic" operator="in"/>
    </filter>
    <filter id="ds" x="-30%" y="-30%" width="160%" height="160%">
      <feGaussianBlur in="SourceAlpha" stdDeviation="0.8"/>
      <feOffset dx="0.5" dy="1.1"/>
      <feComponentTransfer><feFuncA type="linear" slope="0.6"/></feComponentTransfer>
      <feMerge><feMergeNode/><feMergeNode in="SourceGraphic"/></feMerge>
    </filter>
  </defs>
  <g clip-path="url(#hex)">
    <rect x="0" y="0" width="128" height="148" fill="#26421d"/>
    <g fill="#0c1808" opacity="0.55">
      <ellipse cx="28" cy="50" rx="11" ry="3"/>
      <ellipse cx="58" cy="42" rx="11" ry="3"/>
      <ellipse cx="92" cy="46" rx="11" ry="3"/>
      <ellipse cx="38" cy="84" rx="11" ry="3"/>
      <ellipse cx="74" cy="88" rx="11" ry="3"/>
      <ellipse cx="104" cy="80" rx="11" ry="3"/>
      <ellipse cx="50" cy="116" rx="11" ry="3"/>
      <ellipse cx="86" cy="120" rx="11" ry="3"/>
    </g>
    <g filter="url(#ds)">
      <g transform="translate(28,34)"><polygon points="0,-14 -10,16 10,16" fill="url(#lg-tree)"/><polygon points="-2,-12 -7,10 6,10" fill="#4d7a3e" opacity="0.7"/></g>
      <g transform="translate(58,26)"><polygon points="0,-16 -11,18 11,18" fill="url(#lg-tree)"/><polygon points="-2,-14 -8,12 7,12" fill="#4d7a3e" opacity="0.7"/></g>
      <g transform="translate(92,30)"><polygon points="0,-14 -10,16 10,16" fill="url(#lg-tree)"/><polygon points="-2,-12 -7,10 6,10" fill="#4d7a3e" opacity="0.7"/></g>
      <g transform="translate(38,68)"><polygon points="0,-15 -11,17 11,17" fill="url(#lg-tree)"/><polygon points="-2,-13 -8,11 7,11" fill="#4d7a3e" opacity="0.7"/></g>
      <g transform="translate(74,72)"><polygon points="0,-16 -11,18 11,18" fill="url(#lg-tree)"/><polygon points="-2,-14 -8,12 7,12" fill="#4d7a3e" opacity="0.7"/></g>
      <g transform="translate(104,64)"><polygon points="0,-14 -10,16 10,16" fill="url(#lg-tree)"/><polygon points="-2,-12 -7,10 6,10" fill="#4d7a3e" opacity="0.7"/></g>
      <g transform="translate(50,100)"><polygon points="0,-15 -11,17 11,17" fill="url(#lg-tree)"/><polygon points="-2,-13 -8,11 7,11" fill="#4d7a3e" opacity="0.7"/></g>
      <g transform="translate(86,104)"><polygon points="0,-16 -11,18 11,18" fill="url(#lg-tree)"/><polygon points="-2,-14 -8,12 7,12" fill="#4d7a3e" opacity="0.7"/></g>
    </g>
  </g>
  </svg>
