<svg xmlns="http://www.w3.org/2000/svg" viewBox="0 0 128 148" preserveAspectRatio="xMidYMid meet">
  <defs>
    <clipPath id="hex"><polygon points="64,0 128,37 128,111 64,148 0,111 0,37"/></clipPath>
    <linearGradient id="lg-base" x1="0" y1="0" x2="0.8" y2="1">
      <stop offset="0" stop-color="#5b7d3e"/>
      <stop offset="1" stop-color="#33501f"/>
    </linearGradient>
    <linearGradient id="lg-tree" x1="0" y1="0" x2="0.5" y2="1">
      <stop offset="0" stop-color="#558947"/>
      <stop offset="1" stop-color="#1e3614"/>
    </linearGradient>
    <filter id="nz" x="0" y="0" width="1" height="1">
      <feTurbulence type="fractalNoise" baseFrequency="0.9" numOctaves="2" seed="17"/>
      <feColorMatrix values="0 0 0 0 0  0 0 0 0 0  0 0 0 0 0  0 0 0 0.25 0"/>
      <feComposite in2="SourceGraphic" operator="in"/>
    </filter>
    <filter id="ds" x="-30%" y="-30%" width="160%" height="160%">
      <feGaussianBlur in="SourceAlpha" stdDeviation="0.8"/>
      <feOffset dx="0.6" dy="1.2"/>
      <feComponentTransfer><feFuncA type="linear" slope="0.55"/></feComponentTransfer>
      <feMerge><feMergeNode/><feMergeNode in="SourceGraphic"/></feMerge>
    </filter>
  </defs>
  <g clip-path="url(#hex)">
    <rect x="0" y="0" width="128" height="148" fill="url(#lg-base)"/>
    <rect x="0" y="0" width="128" height="148" fill="#1d2a10" filter="url(#nz)" opacity="0.6"/>
    <!-- shadow ovals -->
    <g fill="#1a2510" opacity="0.5">
      <ellipse cx="36" cy="68" rx="14" ry="4"/>
      <ellipse cx="80" cy="56" rx="12" ry="3.5"/>
      <ellipse cx="56" cy="100" rx="14" ry="4"/>
      <ellipse cx="96" cy="108" rx="12" ry="3.5"/>
    </g>
    <g filter="url(#ds)">
      <!-- tree 1 -->
      <g transform="translate(36,52)">
        <ellipse cx="0" cy="14" rx="14" ry="14" fill="url(#lg-tree)"/>
        <ellipse cx="-4" cy="6" rx="9" ry="9" fill="#6a9a52" opacity="0.85"/>
        <rect x="-1.6" y="22" width="3.2" height="6" fill="#3a2818"/>
      </g>
      <!-- tree 2 -->
      <g transform="translate(80,42)">
        <ellipse cx="0" cy="12" rx="12" ry="12" fill="url(#lg-tree)"/>
        <ellipse cx="-3" cy="5" rx="7" ry="7" fill="#6a9a52" opacity="0.85"/>
        <rect x="-1.4" y="18" width="2.8" height="5" fill="#3a2818"/>
      </g>
      <!-- tree 3 -->
      <g transform="translate(56,84)">
        <ellipse cx="0" cy="14" rx="14" ry="14" fill="url(#lg-tree)"/>
        <ellipse cx="-4" cy="6" rx="9" ry="9" fill="#6a9a52" opacity="0.85"/>
        <rect x="-1.6" y="22" width="3.2" height="6" fill="#3a2818"/>
      </g>
      <!-- tree 4 -->
      <g transform="translate(96,94)">
        <ellipse cx="0" cy="12" rx="12" ry="12" fill="url(#lg-tree)"/>
        <ellipse cx="-3" cy="5" rx="7" ry="7" fill="#6a9a52" opacity="0.85"/>
        <rect x="-1.4" y="18" width="2.8" height="5" fill="#3a2818"/>
      </g>
    </g>
  </g>
  <polygon points="64,0 128,37 128,111 64,148 0,111 0,37" fill="none" stroke="#1d2a10" stroke-width="0.6" opacity="0.5"/>
</svg>
