<svg xmlns="http://www.w3.org/2000/svg" viewBox="0 0 128 148" preserveAspectRatio="xMidYMid meet">
  <defs>
    <clipPath id="hex"><polygon points="64,0 128,37 128,111 64,148 0,111 0,37"/></clipPath>
    <!-- Purely vertical gradient (x2 = x1 = 0). With any horizontal
         component the left and right edges of the mound have different
         colors, breaking the left-right hex-boundary color match. -->
    <linearGradient id="lg-mound" x1="0" y1="0" x2="0" y2="1">
      <stop offset="0" stop-color="#c4a07a"/>
      <stop offset="1" stop-color="#5e4524"/>
    </linearGradient>
    <filter id="nz" x="0" y="0" width="1" height="1">
      <feTurbulence type="fractalNoise" baseFrequency="0.8" numOctaves="2" seed="11"/>
      <feColorMatrix values="0 0 0 0 0  0 0 0 0 0  0 0 0 0 0  0 0 0 0.2 0"/>
      <feComposite in2="SourceGraphic" operator="in"/>
    </filter>
    <filter id="ds" x="-30%" y="-30%" width="160%" height="160%">
      <feGaussianBlur in="SourceAlpha" stdDeviation="1"/>
      <feOffset dx="1" dy="2"/>
      <feComponentTransfer><feFuncA type="linear" slope="0.5"/></feComponentTransfer>
      <feMerge><feMergeNode/><feMergeNode in="SourceGraphic"/></feMerge>
    </filter>
  </defs>
  <g clip-path="url(#hex)">
    <rect x="0" y="0" width="128" height="148" fill="#91714e"/>
    <g filter="url(#ds)">
      <!-- back ridge -->
      <path d="M 8 96 Q 38 64 70 82 Q 96 96 122 78 L 128 148 L 0 148 Z" fill="url(#lg-mound)" opacity="0.85"/>
      <!-- front mound -->
      <path d="M 16 122 Q 50 92 78 116 Q 102 134 122 116 L 128 148 L 0 148 Z" fill="url(#lg-mound)"/>
    </g>
    <!-- shadow valleys -->
    <path d="M 8 96 Q 38 64 70 82 Q 96 96 122 78" fill="none" stroke="#3a2818" stroke-width="0.6" opacity="0.5"/>
    <path d="M 16 122 Q 50 92 78 116 Q 102 134 122 116" fill="none" stroke="#2f1f12" stroke-width="0.6" opacity="0.5"/>
    <!-- grass tufts on hills -->
    <g stroke="#3e3618" stroke-width="0.7" stroke-linecap="round" opacity="0.6">
      <line x1="34" y1="106" x2="34" y2="100"/>
      <line x1="62" y1="112" x2="62" y2="106"/>
      <line x1="90" y1="124" x2="90" y2="118"/>
    </g>
  </g>
  </svg>
