<svg xmlns="http://www.w3.org/2000/svg" viewBox="0 0 128 148" preserveAspectRatio="xMidYMid meet">
  <defs>
    <clipPath id="hex"><polygon points="64,0 128,37 128,111 64,148 0,111 0,37"/></clipPath>
    <linearGradient id="lg-water" x1="0" y1="0" x2="0.4" y2="1">
      <stop offset="0" stop-color="#4a82a8"/>
      <stop offset="1" stop-color="#0e3654"/>
    </linearGradient>
    <radialGradient id="lg-shine" cx="0.35" cy="0.3" r="0.5">
      <stop offset="0" stop-color="#cce3f0" stop-opacity="0.5"/>
      <stop offset="1" stop-color="#cce3f0" stop-opacity="0"/>
    </radialGradient>
    <filter id="nz" x="0" y="0" width="1" height="1">
      <feTurbulence type="fractalNoise" baseFrequency="0.7" numOctaves="2" seed="41"/>
      <feColorMatrix values="0 0 0 0 0  0 0 0 0 0  0 0 0 0 0  0 0 0 0.14 0"/>
      <feComposite in2="SourceGraphic" operator="in"/>
    </filter>
  </defs>
  <g clip-path="url(#hex)">
    <rect x="0" y="0" width="128" height="148" fill="url(#lg-water)"/>
    <rect x="0" y="0" width="128" height="148" fill="#0a2a44" filter="url(#nz)" opacity="0.6"/>
    <rect x="0" y="0" width="128" height="148" fill="url(#lg-shine)"/>
    <!-- ripple highlights -->
    <g stroke="#a8cfdf" stroke-width="0.5" fill="none" opacity="0.7">
      <path d="M 28 44 Q 40 41 52 44"/>
      <path d="M 60 36 Q 72 33 84 36"/>
      <path d="M 36 60 Q 48 57 60 60"/>
      <path d="M 76 58 Q 88 55 100 58"/>
      <path d="M 30 82 Q 42 79 54 82"/>
      <path d="M 64 84 Q 76 81 88 84"/>
      <path d="M 42 104 Q 54 101 66 104"/>
      <path d="M 76 106 Q 88 103 100 106"/>
      <path d="M 50 124 Q 62 121 74 124"/>
    </g>
    <!-- glint -->
    <ellipse cx="44" cy="38" rx="20" ry="3" fill="#dfeef6" opacity="0.35"/>
  </g>
  </svg>
