<svg xmlns="http://www.w3.org/2000/svg" viewBox="0 0 128 148" preserveAspectRatio="xMidYMid meet">
  <defs>
    <clipPath id="hex"><polygon points="64,0 128,37 128,111 64,148 0,111 0,37"/></clipPath>
    <mask id="softhex"><polygon points="64,0 128,37 128,111 64,148 0,111 0,37" fill="white" filter="url(#hexblur)"/></mask>
    <filter id="hexblur" x="-10%" y="-10%" width="120%" height="120%"><feGaussianBlur stdDeviation="2"/></filter>
    <linearGradient id="lg-base" x1="0" y1="0" x2="0.8" y2="1">
      <stop offset="0" stop-color="#8a847e"/>
      <stop offset="1" stop-color="#4f4a45"/>
    </linearGradient>
    <linearGradient id="lg-peak-light" x1="0" y1="0" x2="1" y2="0.6">
      <stop offset="0" stop-color="#bcb6ad"/>
      <stop offset="1" stop-color="#5a544c"/>
    </linearGradient>
    <linearGradient id="lg-peak-dark" x1="0" y1="0" x2="1" y2="0.6">
      <stop offset="0" stop-color="#6a625a"/>
      <stop offset="1" stop-color="#3a342e"/>
    </linearGradient>
    <filter id="nz" x="0" y="0" width="1" height="1">
      <feTurbulence type="fractalNoise" baseFrequency="1.1" numOctaves="2" seed="13"/>
      <feColorMatrix values="0 0 0 0 0  0 0 0 0 0  0 0 0 0 0  0 0 0 0.22 0"/>
      <feComposite in2="SourceGraphic" operator="in"/>
    </filter>
  </defs>
  <g mask="url(#softhex)">
    <rect x="0" y="0" width="128" height="148" fill="url(#lg-base)"/>
    <rect x="0" y="0" width="128" height="148" fill="#2a2622" filter="url(#nz)" opacity="0.55"/>
    <!-- back peak (left) -->
    <path d="M 8 110 L 38 36 L 64 86 L 38 120 Z" fill="url(#lg-peak-dark)"/>
    <!-- main peak (center) -->
    <path d="M 38 130 L 70 24 L 98 130 Z" fill="url(#lg-peak-light)"/>
    <!-- shadow side of main peak -->
    <path d="M 70 24 L 98 130 L 84 130 L 70 60 Z" fill="#3a342e" opacity="0.65"/>
    <!-- right peak -->
    <path d="M 82 130 L 104 56 L 124 110 L 124 130 Z" fill="url(#lg-peak-dark)"/>
    <!-- snow cap main -->
    <path d="M 70 24 L 64 44 Q 70 38 76 44 L 74 30 Q 72 26 70 24 Z" fill="#f0ece4" opacity="0.92"/>
    <!-- snow cap back left -->
    <path d="M 38 36 L 34 50 Q 38 44 42 50 L 40 40 Z" fill="#dcd6cc" opacity="0.8"/>
    <!-- ridge highlights -->
    <path d="M 70 24 L 98 130" fill="none" stroke="#cac3b8" stroke-width="0.6" opacity="0.65"/>
    <path d="M 38 36 L 64 86" fill="none" stroke="#a8a098" stroke-width="0.5" opacity="0.5"/>
    <path d="M 104 56 L 124 110" fill="none" stroke="#a8a098" stroke-width="0.5" opacity="0.5"/>
  </g>
  </svg>
