<svg xmlns="http://www.w3.org/2000/svg" viewBox="0 0 128 148" preserveAspectRatio="xMidYMid meet">
  <defs>
    <clipPath id="hex"><polygon points="64,0 128,37 128,111 64,148 0,111 0,37"/></clipPath>
    <linearGradient id="lg-base" x1="0" y1="0" x2="0.8" y2="1">
      <stop offset="0" stop-color="#a08c63"/>
      <stop offset="1" stop-color="#5c4a2a"/>
    </linearGradient>
    <linearGradient id="lg-wall" x1="0" y1="0" x2="0.4" y2="1">
      <stop offset="0" stop-color="#e8d2a4"/>
      <stop offset="1" stop-color="#806237"/>
    </linearGradient>
    <linearGradient id="lg-roof" x1="0" y1="0" x2="0" y2="1">
      <stop offset="0" stop-color="#c87248"/>
      <stop offset="1" stop-color="#7a3d20"/>
    </linearGradient>
    <linearGradient id="lg-marble" x1="0" y1="0" x2="0.4" y2="1">
      <stop offset="0" stop-color="#f4ecd6"/>
      <stop offset="1" stop-color="#a89868"/>
    </linearGradient>
    <filter id="nz" x="0" y="0" width="1" height="1">
      <feTurbulence type="fractalNoise" baseFrequency="0.9" numOctaves="2" seed="87"/>
      <feColorMatrix values="0 0 0 0 0  0 0 0 0 0  0 0 0 0 0  0 0 0 0.22 0"/>
      <feComposite in2="SourceGraphic" operator="in"/>
    </filter>
    <filter id="ds" x="-30%" y="-30%" width="160%" height="160%">
      <feGaussianBlur in="SourceAlpha" stdDeviation="0.6"/>
      <feOffset dx="0.5" dy="1"/>
      <feComponentTransfer><feFuncA type="linear" slope="0.55"/></feComponentTransfer>
      <feMerge><feMergeNode/><feMergeNode in="SourceGraphic"/></feMerge>
    </filter>
  </defs>
  <g clip-path="url(#hex)">
    <rect x="0" y="0" width="128" height="148" fill="url(#lg-base)"/>
    <rect x="0" y="0" width="128" height="148" fill="#3a2c14" filter="url(#nz)" opacity="0.4"/>
    <!-- street grid (two streets crossing) -->
    <g stroke="#3a2c14" stroke-width="1.2" opacity="0.75">
      <line x1="0" y1="74" x2="128" y2="74"/>
      <line x1="64" y1="0" x2="64" y2="148"/>
    </g>
    <g filter="url(#ds)">
      <!-- 4 quadrant blocks of denser housing -->
      <!-- TL -->
      <rect x="10" y="36" width="20" height="32" fill="url(#lg-wall)" stroke="#3a2814" stroke-width="0.4"/>
      <polygon points="10,36 30,36 26,30 14,30" fill="url(#lg-roof)" stroke="#2a1408" stroke-width="0.4"/>
      <rect x="36" y="40" width="20" height="28" fill="url(#lg-wall)" stroke="#3a2814" stroke-width="0.4"/>
      <polygon points="36,40 56,40 52,32 40,32" fill="url(#lg-roof)" stroke="#2a1408" stroke-width="0.4"/>
      <!-- TR -->
      <rect x="72" y="38" width="22" height="30" fill="url(#lg-wall)" stroke="#3a2814" stroke-width="0.4"/>
      <polygon points="72,38 94,38 88,30 78,30" fill="url(#lg-roof)" stroke="#2a1408" stroke-width="0.4"/>
      <rect x="100" y="44" width="18" height="24" fill="url(#lg-wall)" stroke="#3a2814" stroke-width="0.4"/>
      <polygon points="100,44 118,44 114,36 104,36" fill="url(#lg-roof)" stroke="#2a1408" stroke-width="0.4"/>
      <!-- forum (central, marble) -->
      <rect x="48" y="20" width="32" height="14" fill="url(#lg-marble)" stroke="#3a2814" stroke-width="0.5"/>
      <polygon points="46,20 82,20 76,10 52,10" fill="#a4502c" stroke="#2a1408" stroke-width="0.4"/>
      <g stroke="#a89868" stroke-width="0.4">
        <line x1="51" y1="22" x2="51" y2="32"/>
        <line x1="58" y1="22" x2="58" y2="32"/>
        <line x1="65" y1="22" x2="65" y2="32"/>
        <line x1="72" y1="22" x2="72" y2="32"/>
        <line x1="78" y1="22" x2="78" y2="32"/>
      </g>
      <!-- BL -->
      <rect x="10" y="80" width="22" height="28" fill="url(#lg-wall)" stroke="#3a2814" stroke-width="0.4"/>
      <polygon points="10,80 32,80 28,72 14,72" fill="url(#lg-roof)" stroke="#2a1408" stroke-width="0.4"/>
      <rect x="36" y="84" width="20" height="24" fill="url(#lg-wall)" stroke="#3a2814" stroke-width="0.4"/>
      <polygon points="36,84 56,84 52,76 40,76" fill="url(#lg-roof)" stroke="#2a1408" stroke-width="0.4"/>
      <!-- BR -->
      <rect x="72" y="80" width="22" height="28" fill="url(#lg-wall)" stroke="#3a2814" stroke-width="0.4"/>
      <polygon points="72,80 94,80 88,72 78,72" fill="url(#lg-roof)" stroke="#2a1408" stroke-width="0.4"/>
      <rect x="100" y="84" width="18" height="24" fill="url(#lg-wall)" stroke="#3a2814" stroke-width="0.4"/>
      <polygon points="100,84 118,84 114,76 104,76" fill="url(#lg-roof)" stroke="#2a1408" stroke-width="0.4"/>
      <!-- smaller buildings at the bottom -->
      <rect x="20" y="120" width="16" height="16" fill="url(#lg-wall)" stroke="#3a2814" stroke-width="0.4"/>
      <polygon points="20,120 36,120 32,114 24,114" fill="url(#lg-roof)" stroke="#2a1408" stroke-width="0.4"/>
      <rect x="48" y="120" width="32" height="16" fill="url(#lg-wall)" stroke="#3a2814" stroke-width="0.4"/>
      <polygon points="48,120 80,120 74,114 54,114" fill="url(#lg-roof)" stroke="#2a1408" stroke-width="0.4"/>
      <rect x="92" y="120" width="20" height="16" fill="url(#lg-wall)" stroke="#3a2814" stroke-width="0.4"/>
      <polygon points="92,120 112,120 108,114 96,114" fill="url(#lg-roof)" stroke="#2a1408" stroke-width="0.4"/>
    </g>
    <!-- windows -->
    <g fill="#3a2c14">
      <rect x="16" y="48" width="2" height="3"/><rect x="22" y="48" width="2" height="3"/>
      <rect x="42" y="52" width="2" height="3"/><rect x="48" y="52" width="2" height="3"/>
      <rect x="78" y="50" width="2" height="3"/><rect x="86" y="50" width="2" height="3"/>
      <rect x="16" y="92" width="2" height="3"/><rect x="24" y="92" width="2" height="3"/>
      <rect x="42" y="96" width="2" height="3"/><rect x="50" y="96" width="2" height="3"/>
      <rect x="78" y="92" width="2" height="3"/><rect x="86" y="92" width="2" height="3"/>
    </g>
    <!-- chimneys + smoke -->
    <ellipse cx="20" cy="26" rx="2" ry="1.4" fill="#9a8d80" opacity="0.45"/>
    <ellipse cx="86" cy="26" rx="2" ry="1.4" fill="#9a8d80" opacity="0.4"/>
  </g>
  </svg>
