<svg xmlns="http://www.w3.org/2000/svg" viewBox="0 0 128 148" preserveAspectRatio="xMidYMid meet">
  <defs>
    <clipPath id="hex"><polygon points="64,0 128,37 128,111 64,148 0,111 0,37"/></clipPath>
    <linearGradient id="lg-base" x1="0" y1="0" x2="0.8" y2="1">
      <stop offset="0" stop-color="#9a8a60"/>
      <stop offset="1" stop-color="#52401e"/>
    </linearGradient>
    <linearGradient id="lg-wall" x1="0" y1="0" x2="0.4" y2="1">
      <stop offset="0" stop-color="#e8d2a4"/>
      <stop offset="1" stop-color="#806237"/>
    </linearGradient>
    <linearGradient id="lg-roof" x1="0" y1="0" x2="0" y2="1">
      <stop offset="0" stop-color="#dc5c30"/>
      <stop offset="1" stop-color="#52200a"/>
    </linearGradient>
    <linearGradient id="lg-marble" x1="0" y1="0" x2="0.4" y2="1">
      <stop offset="0" stop-color="#f6efd6"/>
      <stop offset="1" stop-color="#b8a878"/>
    </linearGradient>
    <linearGradient id="lg-stone" x1="0" y1="0" x2="0.4" y2="1">
      <stop offset="0" stop-color="#dccab2"/>
      <stop offset="1" stop-color="#5e5040"/>
    </linearGradient>
    <linearGradient id="lg-gold" x1="0" y1="0" x2="0" y2="1">
      <stop offset="0" stop-color="#ffe28c"/>
      <stop offset="1" stop-color="#a07a28"/>
    </linearGradient>
    <filter id="nz" x="0" y="0" width="1" height="1">
      <feTurbulence type="fractalNoise" baseFrequency="0.85" numOctaves="2" seed="91"/>
      <feColorMatrix values="0 0 0 0 0  0 0 0 0 0  0 0 0 0 0  0 0 0 0.22 0"/>
      <feComposite in2="SourceGraphic" operator="in"/>
    </filter>
    <filter id="ds" x="-30%" y="-30%" width="160%" height="160%">
      <feGaussianBlur in="SourceAlpha" stdDeviation="0.5"/>
      <feOffset dx="0.4" dy="0.8"/>
      <feComponentTransfer><feFuncA type="linear" slope="0.5"/></feComponentTransfer>
      <feMerge><feMergeNode/><feMergeNode in="SourceGraphic"/></feMerge>
    </filter>
  </defs>
  <g clip-path="url(#hex)">
    <rect x="0" y="0" width="128" height="148" fill="url(#lg-base)"/>
    <rect x="0" y="0" width="128" height="148" fill="#3a2c14" filter="url(#nz)" opacity="0.32"/>
    <!-- outer wall (thicker, more crenels) -->
    <path d="M 4 38 L 64 4 L 124 38 L 124 110 L 64 144 L 4 110 Z" fill="none" stroke="url(#lg-stone)" stroke-width="3.5" stroke-linejoin="miter"/>
    <g fill="url(#lg-stone)" stroke="#3a2814" stroke-width="0.3">
      <rect x="12" y="34" width="4" height="3"/>
      <rect x="28" y="24" width="4" height="3"/>
      <rect x="44" y="14" width="4" height="3"/>
      <rect x="60" y="6" width="4" height="3"/>
      <rect x="76" y="14" width="4" height="3"/>
      <rect x="92" y="24" width="4" height="3"/>
      <rect x="108" y="34" width="4" height="3"/>
    </g>
    <!-- corner towers -->
    <g filter="url(#ds)">
      <rect x="2" y="32" width="8" height="14" fill="url(#lg-stone)" stroke="#3a2814" stroke-width="0.4"/>
      <polygon points="0,32 12,32 6,22" fill="url(#lg-roof)" stroke="#2a1408" stroke-width="0.4"/>
      <rect x="118" y="32" width="8" height="14" fill="url(#lg-stone)" stroke="#3a2814" stroke-width="0.4"/>
      <polygon points="116,32 128,32 122,22" fill="url(#lg-roof)" stroke="#2a1408" stroke-width="0.4"/>
    </g>
    <!-- dense street grid -->
    <g stroke="#3a2c14" stroke-width="1.2" opacity="0.8">
      <line x1="14" y1="48" x2="114" y2="48"/>
      <line x1="14" y1="74" x2="114" y2="74"/>
      <line x1="14" y1="100" x2="114" y2="100"/>
      <line x1="32" y1="14" x2="32" y2="134"/>
      <line x1="64" y1="6" x2="64" y2="142"/>
      <line x1="96" y1="14" x2="96" y2="134"/>
    </g>
    <g filter="url(#ds)">
      <!-- grand temple (top-left of center) -->
      <rect x="38" y="22" width="26" height="14" fill="url(#lg-marble)" stroke="#3a2814" stroke-width="0.5"/>
      <polygon points="36,22 66,22 51,12" fill="url(#lg-roof)" stroke="#2a1408" stroke-width="0.4"/>
      <polygon points="51,12 49,15 53,15" fill="url(#lg-gold)"/>
      <g stroke="#a89868" stroke-width="0.4">
        <line x1="42" y1="24" x2="42" y2="34"/>
        <line x1="48" y1="24" x2="48" y2="34"/>
        <line x1="54" y1="24" x2="54" y2="34"/>
        <line x1="60" y1="24" x2="60" y2="34"/>
      </g>
      <!-- forum (top-right) -->
      <rect x="68" y="22" width="28" height="14" fill="url(#lg-marble)" stroke="#3a2814" stroke-width="0.5"/>
      <polygon points="66,22 98,22 82,12" fill="url(#lg-roof)" stroke="#2a1408" stroke-width="0.4"/>
      <rect x="78" y="28" width="6" height="8" fill="#3a2814"/>
      <!-- amphitheater/circus (bottom-center) -->
      <ellipse cx="64" cy="118" rx="22" ry="10" fill="url(#lg-stone)" stroke="#3a2814" stroke-width="0.5"/>
      <ellipse cx="64" cy="118" rx="18" ry="7" fill="#7a6a48"/>
      <ellipse cx="64" cy="116" rx="14" ry="5" fill="#3a2814" opacity="0.55"/>
      <!-- dense insulae (multi-story) -->
      <rect x="14" y="50" width="16" height="22" fill="url(#lg-wall)" stroke="#3a2814" stroke-width="0.4"/>
      <polygon points="14,50 30,50 26,42 18,42" fill="url(#lg-roof)" stroke="#2a1408" stroke-width="0.4"/>
      <rect x="98" y="50" width="16" height="22" fill="url(#lg-wall)" stroke="#3a2814" stroke-width="0.4"/>
      <polygon points="98,50 114,50 110,42 102,42" fill="url(#lg-roof)" stroke="#2a1408" stroke-width="0.4"/>
      <rect x="14" y="76" width="16" height="22" fill="url(#lg-wall)" stroke="#3a2814" stroke-width="0.4"/>
      <polygon points="14,76 30,76 26,68 18,68" fill="url(#lg-roof)" stroke="#2a1408" stroke-width="0.4"/>
      <rect x="34" y="78" width="14" height="20" fill="url(#lg-wall)" stroke="#3a2814" stroke-width="0.4"/>
      <polygon points="34,78 48,78 44,70 38,70" fill="url(#lg-roof)" stroke="#2a1408" stroke-width="0.4"/>
      <rect x="80" y="78" width="14" height="20" fill="url(#lg-wall)" stroke="#3a2814" stroke-width="0.4"/>
      <polygon points="80,78 94,78 90,70 84,70" fill="url(#lg-roof)" stroke="#2a1408" stroke-width="0.4"/>
      <rect x="98" y="76" width="16" height="22" fill="url(#lg-wall)" stroke="#3a2814" stroke-width="0.4"/>
      <polygon points="98,76 114,76 110,68 102,68" fill="url(#lg-roof)" stroke="#2a1408" stroke-width="0.4"/>
      <!-- column / monument in plaza -->
      <rect x="63" y="50" width="2" height="22" fill="url(#lg-marble)" stroke="#3a2814" stroke-width="0.3"/>
      <circle cx="64" cy="48" r="1.6" fill="url(#lg-gold)"/>
    </g>
    <!-- windows everywhere -->
    <g fill="#3a2c14">
      <rect x="18" y="58" width="2" height="3"/><rect x="24" y="58" width="2" height="3"/>
      <rect x="18" y="64" width="2" height="3"/><rect x="24" y="64" width="2" height="3"/>
      <rect x="102" y="58" width="2" height="3"/><rect x="108" y="58" width="2" height="3"/>
      <rect x="102" y="64" width="2" height="3"/><rect x="108" y="64" width="2" height="3"/>
      <rect x="18" y="84" width="2" height="3"/><rect x="24" y="84" width="2" height="3"/>
      <rect x="38" y="84" width="2" height="3"/><rect x="42" y="84" width="2" height="3"/>
      <rect x="84" y="84" width="2" height="3"/><rect x="90" y="84" width="2" height="3"/>
      <rect x="102" y="84" width="2" height="3"/><rect x="108" y="84" width="2" height="3"/>
    </g>
    <!-- many smokes -->
    <ellipse cx="22" cy="38" rx="2" ry="1.4" fill="#9a8d80" opacity="0.4"/>
    <ellipse cx="104" cy="38" rx="2" ry="1.4" fill="#9a8d80" opacity="0.4"/>
    <ellipse cx="86" cy="62" rx="1.8" ry="1.2" fill="#9a8d80" opacity="0.4"/>
    <ellipse cx="40" cy="62" rx="1.8" ry="1.2" fill="#9a8d80" opacity="0.4"/>
  </g>
  </svg>
