<svg xmlns="http://www.w3.org/2000/svg" viewBox="0 0 128 148" preserveAspectRatio="xMidYMid meet">
  <defs>
    <clipPath id="hex"><polygon points="64,0 128,37 128,111 64,148 0,111 0,37"/></clipPath>
    <linearGradient id="lg-thatch" x1="0" y1="0" x2="0" y2="1">
      <stop offset="0" stop-color="#a8783a"/>
      <stop offset="1" stop-color="#4a2e12"/>
    </linearGradient>
    <linearGradient id="lg-wattle" x1="0" y1="0" x2="0.6" y2="1">
      <stop offset="0" stop-color="#caa874"/>
      <stop offset="1" stop-color="#6a4e2a"/>
    </linearGradient>
    <filter id="nz" x="0" y="0" width="1" height="1">
      <feTurbulence type="fractalNoise" baseFrequency="0.95" numOctaves="2" seed="83"/>
      <feColorMatrix values="0 0 0 0 0  0 0 0 0 0  0 0 0 0 0  0 0 0 0.2 0"/>
      <feComposite in2="SourceGraphic" operator="in"/>
    </filter>
    <filter id="ds" x="-30%" y="-30%" width="160%" height="160%">
      <feGaussianBlur in="SourceAlpha" stdDeviation="0.8"/>
      <feOffset dx="0.7" dy="1.4"/>
      <feComponentTransfer><feFuncA type="linear" slope="0.5"/></feComponentTransfer>
      <feMerge><feMergeNode/><feMergeNode in="SourceGraphic"/></feMerge>
    </filter>
  </defs>
  <g clip-path="url(#hex)">
    <rect x="0" y="0" width="128" height="148" fill="#7d6a3a"/>
    <rect x="0" y="0" width="128" height="148" fill="#3a2c14" filter="url(#nz)" opacity="0.45"/>
    <!-- garden plots / fields -->
    <g stroke="#3e3014" stroke-width="0.5" opacity="0.55" fill="none">
      <line x1="14" y1="100" x2="60" y2="100"/>
      <line x1="14" y1="108" x2="60" y2="108"/>
      <line x1="14" y1="116" x2="60" y2="116"/>
    </g>
    <g filter="url(#ds)">
      <!-- single big round hut -->
      <ellipse cx="58" cy="68" rx="20" ry="6" fill="#3a2814" opacity="0.7"/>
      <path d="M 38 68 L 38 56 A 20 16 0 0 1 78 56 L 78 68 Z" fill="url(#lg-wattle)" stroke="#3a2010" stroke-width="0.6"/>
      <path d="M 32 56 Q 58 22 84 56 Z" fill="url(#lg-thatch)" stroke="#2a1408" stroke-width="0.6"/>
      <path d="M 54 68 L 54 62 A 4 4 0 0 1 62 62 L 62 68 Z" fill="#1a0e04"/>
      <!-- smoke -->
      <ellipse cx="58" cy="24" rx="4" ry="3" fill="#9a8d80" opacity="0.55"/>
      <ellipse cx="62" cy="14" rx="3" ry="2" fill="#9a8d80" opacity="0.4"/>
      <!-- small secondary hut to the right -->
      <ellipse cx="96" cy="92" rx="12" ry="3.5" fill="#3a2814" opacity="0.7"/>
      <path d="M 84 92 L 84 84 A 12 10 0 0 1 108 84 L 108 92 Z" fill="url(#lg-wattle)" stroke="#3a2010" stroke-width="0.4"/>
      <path d="M 80 84 Q 96 64 112 84 Z" fill="url(#lg-thatch)" stroke="#2a1408" stroke-width="0.4"/>
    </g>
    <!-- footpath -->
    <path d="M 30 130 Q 60 110 78 84 Q 90 70 110 60" fill="none" stroke="#6a523a" stroke-width="2" opacity="0.7"/>
    <!-- chicken / livestock dots -->
    <g fill="#daca7a">
      <circle cx="100" cy="120" r="1.4"/>
      <circle cx="106" cy="124" r="1.2"/>
      <circle cx="22" cy="80" r="1.4"/>
    </g>
  </g>
  </svg>
