<svg xmlns="http://www.w3.org/2000/svg" viewBox="0 0 64 64">
  <defs>
    <linearGradient id="lg-wattle" x1="0" y1="0" x2="0.6" y2="1">
      <stop offset="0" stop-color="#caa874"/>
      <stop offset="1" stop-color="#6a4e2a"/>
    </linearGradient>
    <linearGradient id="lg-thatch" x1="0" y1="0" x2="0" y2="1">
      <stop offset="0" stop-color="#a8783a"/>
      <stop offset="1" stop-color="#4e3214"/>
    </linearGradient>
    <filter id="nz" x="0" y="0" width="1" height="1">
      <feTurbulence type="fractalNoise" baseFrequency="1.1" numOctaves="2" seed="71"/>
      <feColorMatrix values="0 0 0 0 0  0 0 0 0 0  0 0 0 0 0  0 0 0 0.2 0"/>
      <feComposite in2="SourceGraphic" operator="in"/>
    </filter>
    <filter id="ds" x="-30%" y="-30%" width="160%" height="160%">
      <feGaussianBlur in="SourceAlpha" stdDeviation="0.7"/>
      <feOffset dx="0.6" dy="1.2"/>
      <feComponentTransfer><feFuncA type="linear" slope="0.55"/></feComponentTransfer>
      <feMerge><feMergeNode/><feMergeNode in="SourceGraphic"/></feMerge>
    </filter>
  </defs>
  <!-- soft grass patch under -->
  <ellipse cx="32" cy="50" rx="20" ry="6" fill="#3a4818" opacity="0.5"/>
  <g filter="url(#ds)">
    <!-- single round wattle-and-daub hut -->
    <ellipse cx="32" cy="44" rx="10" ry="3" fill="#3a2814" opacity="0.7"/>
    <path d="M 22 44 L 22 38 A 10 8 0 0 1 42 38 L 42 44 Z" fill="url(#lg-wattle)" stroke="#3a2010" stroke-width="0.5"/>
    <!-- conical thatched roof -->
    <path d="M 18 38 Q 32 18 46 38 Z" fill="url(#lg-thatch)" stroke="#2a1408" stroke-width="0.5"/>
    <!-- thatch lines -->
    <g stroke="#2a1408" stroke-width="0.25" opacity="0.65">
      <line x1="22" y1="32" x2="42" y2="32"/>
      <line x1="20" y1="35" x2="44" y2="35"/>
    </g>
    <!-- door (low arch) -->
    <path d="M 29 44 L 29 41 A 3 3 0 0 1 35 41 L 35 44 Z" fill="#1a0e04"/>
    <!-- smoke from top -->
    <ellipse cx="32" cy="16" rx="2" ry="1.4" fill="#9a8d80" opacity="0.5"/>
    <ellipse cx="33" cy="12" rx="1.6" ry="1.2" fill="#9a8d80" opacity="0.4"/>
  </g>
  <!-- tiny garden plot -->
  <g stroke="#5a4022" stroke-width="0.3" opacity="0.7">
    <line x1="46" y1="50" x2="56" y2="50"/>
    <line x1="46" y1="52" x2="56" y2="52"/>
    <line x1="46" y1="54" x2="56" y2="54"/>
  </g>
  <g fill="#7a9a3a" opacity="0.7">
    <circle cx="48" cy="50" r="0.6"/>
    <circle cx="52" cy="51" r="0.6"/>
    <circle cx="54" cy="53" r="0.6"/>
  </g>
  <!-- chicken (a dot with legs) -->
  <ellipse cx="14" cy="50" rx="1.4" ry="1" fill="#daca7a"/>
  <line x1="14" y1="51" x2="14" y2="53" stroke="#3a2814" stroke-width="0.4"/>
  <circle cx="13" cy="49" r="0.5" fill="#daca7a"/>
  <circle cx="13" cy="49" r="0.2" fill="#3a2814"/>
</svg>
