<svg xmlns="http://www.w3.org/2000/svg" viewBox="0 0 64 64">
  <defs>
    <linearGradient id="lg-stone" x1="0" y1="0" x2="0.6" y2="1">
      <stop offset="0" stop-color="#e8d8b8"/>
      <stop offset="1" stop-color="#866c3a"/>
    </linearGradient>
    <linearGradient id="lg-tile" x1="0" y1="0" x2="0" y2="1">
      <stop offset="0" stop-color="#dc5c30"/>
      <stop offset="1" stop-color="#52200a"/>
    </linearGradient>
    <linearGradient id="lg-marble" x1="0" y1="0" x2="0.4" y2="1">
      <stop offset="0" stop-color="#f6efd6"/>
      <stop offset="1" stop-color="#b8a878"/>
    </linearGradient>
    <linearGradient id="lg-gold" x1="0" y1="0" x2="0" y2="1">
      <stop offset="0" stop-color="#ffe28c"/>
      <stop offset="1" stop-color="#a07a28"/>
    </linearGradient>
    <filter id="nz" x="0" y="0" width="1" height="1">
      <feTurbulence type="fractalNoise" baseFrequency="0.95" numOctaves="2" seed="79"/>
      <feColorMatrix values="0 0 0 0 0  0 0 0 0 0  0 0 0 0 0  0 0 0 0.16 0"/>
      <feComposite in2="SourceGraphic" operator="in"/>
    </filter>
    <filter id="ds" x="-30%" y="-30%" width="160%" height="160%">
      <feGaussianBlur in="SourceAlpha" stdDeviation="0.6"/>
      <feOffset dx="0.5" dy="1"/>
      <feComponentTransfer><feFuncA type="linear" slope="0.55"/></feComponentTransfer>
      <feMerge><feMergeNode/><feMergeNode in="SourceGraphic"/></feMerge>
    </filter>
  </defs>
  <ellipse cx="32" cy="60" rx="32" ry="4" fill="#3a3024" opacity="0.5"/>
  <g filter="url(#ds)">
    <!-- massive curtain wall -->
    <rect x="0" y="38" width="64" height="20" fill="url(#lg-stone)" stroke="#3a2814" stroke-width="0.5"/>
    <!-- wall crenellation -->
    <g fill="url(#lg-stone)" stroke="#3a2814" stroke-width="0.3">
      <rect x="0" y="34" width="4" height="4"/>
      <rect x="7" y="34" width="4" height="4"/>
      <rect x="14" y="34" width="4" height="4"/>
      <rect x="21" y="34" width="4" height="4"/>
      <rect x="39" y="34" width="4" height="4"/>
      <rect x="46" y="34" width="4" height="4"/>
      <rect x="53" y="34" width="4" height="4"/>
      <rect x="60" y="34" width="4" height="4"/>
    </g>
    <g fill="#3a2814" opacity="0.55">
      <rect x="4" y="38" width="3" height="2"/>
      <rect x="11" y="38" width="3" height="2"/>
      <rect x="18" y="38" width="3" height="2"/>
      <rect x="25" y="38" width="3" height="2"/>
      <rect x="43" y="38" width="3" height="2"/>
      <rect x="50" y="38" width="3" height="2"/>
      <rect x="57" y="38" width="3" height="2"/>
    </g>
    <!-- arched main gate -->
    <path d="M 26 58 L 26 44 A 6 6 0 0 1 38 44 L 38 58 Z" fill="#1a0e04"/>
    <!-- gate towers (taller) -->
    <rect x="22" y="26" width="6" height="26" fill="url(#lg-stone)" stroke="#3a2814" stroke-width="0.4"/>
    <rect x="36" y="26" width="6" height="26" fill="url(#lg-stone)" stroke="#3a2814" stroke-width="0.4"/>
    <g fill="url(#lg-stone)" stroke="#3a2814" stroke-width="0.3">
      <rect x="21" y="22" width="3" height="4"/>
      <rect x="26" y="22" width="3" height="4"/>
      <rect x="35" y="22" width="3" height="4"/>
      <rect x="40" y="22" width="3" height="4"/>
    </g>
    <rect x="23" y="30" width="2" height="3" fill="#1a0e04"/>
    <rect x="39" y="30" width="2" height="3" fill="#1a0e04"/>
    <!-- corner towers (also taller) -->
    <rect x="0" y="24" width="6" height="22" fill="url(#lg-stone)" stroke="#3a2814" stroke-width="0.4"/>
    <polygon points="-1,24 7,24 3,16" fill="url(#lg-tile)" stroke="#2a1408" stroke-width="0.4"/>
    <rect x="2" y="30" width="2" height="3" fill="#1a0e04"/>
    <rect x="58" y="24" width="6" height="22" fill="url(#lg-stone)" stroke="#3a2814" stroke-width="0.4"/>
    <polygon points="57,24 65,24 61,16" fill="url(#lg-tile)" stroke="#2a1408" stroke-width="0.4"/>
    <rect x="60" y="30" width="2" height="3" fill="#1a0e04"/>
    <!-- grand temple in center-rear -->
    <rect x="8" y="14" width="18" height="14" fill="url(#lg-marble)" stroke="#3a2814" stroke-width="0.4"/>
    <polygon points="6,14 28,14 17,4" fill="url(#lg-tile)" stroke="#2a1408" stroke-width="0.4"/>
    <g stroke="#a89868" stroke-width="0.4">
      <line x1="10" y1="16" x2="10" y2="28"/>
      <line x1="14" y1="16" x2="14" y2="28"/>
      <line x1="18" y1="16" x2="18" y2="28"/>
      <line x1="22" y1="16" x2="22" y2="28"/>
      <line x1="24" y1="16" x2="24" y2="28"/>
    </g>
    <!-- gold finial on temple -->
    <polygon points="17,4 15,8 19,8" fill="url(#lg-gold)"/>
    <!-- second civic building (basilica/forum) -->
    <rect x="38" y="14" width="20" height="14" fill="url(#lg-marble)" stroke="#3a2814" stroke-width="0.4"/>
    <polygon points="36,14 60,14 48,6" fill="url(#lg-tile)" stroke="#2a1408" stroke-width="0.4"/>
    <rect x="46" y="20" width="4" height="8" fill="#3a2814"/>
    <g stroke="#a89868" stroke-width="0.3">
      <line x1="40" y1="16" x2="40" y2="28"/>
      <line x1="43" y1="16" x2="43" y2="28"/>
      <line x1="53" y1="16" x2="53" y2="28"/>
      <line x1="56" y1="16" x2="56" y2="28"/>
    </g>
    <!-- tall column / monument in plaza -->
    <rect x="31" y="14" width="2" height="14" fill="url(#lg-marble)" stroke="#3a2814" stroke-width="0.3"/>
    <circle cx="32" cy="13" r="1.4" fill="url(#lg-gold)"/>
    <!-- chimney smoke -->
    <ellipse cx="50" cy="10" rx="2.5" ry="1.6" fill="#9a8d80" opacity="0.45"/>
    <ellipse cx="14" cy="6" rx="2" ry="1.4" fill="#9a8d80" opacity="0.4"/>
  </g>
  <!-- banners on gate towers -->
  <line x1="25" y1="26" x2="25" y2="18" stroke="#3a2814" stroke-width="0.5"/>
  <path d="M 25 18 L 31 18 L 31 24 L 28 27 L 25 24 Z" fill="#a83828" stroke="#3a1408" stroke-width="0.3"/>
  <circle cx="28" cy="22" r="0.6" fill="#daca7a"/>
  <line x1="39" y1="26" x2="39" y2="18" stroke="#3a2814" stroke-width="0.5"/>
  <path d="M 39 18 L 33 18 L 33 24 L 36 27 L 39 24 Z" fill="#a83828" stroke="#3a1408" stroke-width="0.3"/>
  <circle cx="36" cy="22" r="0.6" fill="#daca7a"/>
</svg>
