<svg xmlns="http://www.w3.org/2000/svg" viewBox="0 0 64 64">
  <defs>
    <linearGradient id="lg-wall" x1="0" y1="0" x2="0.6" y2="1">
      <stop offset="0" stop-color="#e0c896"/>
      <stop offset="1" stop-color="#7a5a30"/>
    </linearGradient>
    <linearGradient id="lg-tile" x1="0" y1="0" x2="0" y2="1">
      <stop offset="0" stop-color="#a4502c"/>
      <stop offset="1" stop-color="#3e1c0c"/>
    </linearGradient>
    <linearGradient id="lg-tile2" x1="0" y1="0" x2="0" y2="1">
      <stop offset="0" stop-color="#8a4222"/>
      <stop offset="1" stop-color="#2e1408"/>
    </linearGradient>
    <linearGradient id="lg-stone" x1="0" y1="0" x2="0.4" y2="1">
      <stop offset="0" stop-color="#cabe96"/>
      <stop offset="1" stop-color="#5a4e36"/>
    </linearGradient>
    <filter id="nz" x="0" y="0" width="1" height="1">
      <feTurbulence type="fractalNoise" baseFrequency="0.95" numOctaves="2" seed="75"/>
      <feColorMatrix values="0 0 0 0 0  0 0 0 0 0  0 0 0 0 0  0 0 0 0.18 0"/>
      <feComposite in2="SourceGraphic" operator="in"/>
    </filter>
    <filter id="ds" x="-30%" y="-30%" width="160%" height="160%">
      <feGaussianBlur in="SourceAlpha" stdDeviation="0.6"/>
      <feOffset dx="0.5" dy="1"/>
      <feComponentTransfer><feFuncA type="linear" slope="0.55"/></feComponentTransfer>
      <feMerge><feMergeNode/><feMergeNode in="SourceGraphic"/></feMerge>
    </filter>
  </defs>
  <ellipse cx="32" cy="58" rx="28" ry="5" fill="#3a3024" opacity="0.45"/>
  <g filter="url(#ds)">
    <!-- low wall ring (open palisade — not full fortification) -->
    <rect x="4" y="46" width="56" height="2" fill="url(#lg-stone)" stroke="#3a2814" stroke-width="0.3"/>
    <!-- central market hall (slightly elevated) -->
    <rect x="22" y="30" width="20" height="18" fill="url(#lg-wall)" stroke="#3a2814" stroke-width="0.5"/>
    <polygon points="20,30 44,30 40,18 24,18" fill="url(#lg-tile)" stroke="#2a1408" stroke-width="0.5"/>
    <rect x="29" y="38" width="6" height="10" fill="#3a2814"/>
    <rect x="25" y="34" width="3" height="3" fill="#3a2814"/>
    <rect x="36" y="34" width="3" height="3" fill="#3a2814"/>
    <line x1="22" y1="34" x2="42" y2="34" stroke="#3a2814" stroke-width="0.3" opacity="0.55"/>
    <!-- back-left house -->
    <rect x="4" y="34" width="14" height="14" fill="url(#lg-wall)" stroke="#3a2814" stroke-width="0.5"/>
    <polygon points="2,34 20,34 16,26 6,26" fill="url(#lg-tile2)" stroke="#2a1408" stroke-width="0.4"/>
    <rect x="9" y="40" width="4" height="8" fill="#3a2814"/>
    <rect x="6" y="37" width="2" height="2" fill="#3a2814"/>
    <!-- back-right house -->
    <rect x="46" y="34" width="14" height="14" fill="url(#lg-wall)" stroke="#3a2814" stroke-width="0.5"/>
    <polygon points="44,34 62,34 58,26 48,26" fill="url(#lg-tile2)" stroke="#2a1408" stroke-width="0.4"/>
    <rect x="50" y="40" width="4" height="8" fill="#3a2814"/>
    <rect x="56" y="37" width="2" height="2" fill="#3a2814"/>
    <!-- front-left house -->
    <rect x="8" y="48" width="14" height="10" fill="url(#lg-wall)" stroke="#3a2814" stroke-width="0.5"/>
    <polygon points="6,48 24,48 20,42 10,42" fill="url(#lg-tile)" stroke="#2a1408" stroke-width="0.4"/>
    <rect x="13" y="52" width="4" height="6" fill="#3a2814"/>
    <!-- front-right house -->
    <rect x="42" y="48" width="14" height="10" fill="url(#lg-wall)" stroke="#3a2814" stroke-width="0.5"/>
    <polygon points="40,48 58,48 54,42 44,42" fill="url(#lg-tile)" stroke="#2a1408" stroke-width="0.4"/>
    <rect x="47" y="52" width="4" height="6" fill="#3a2814"/>
    <!-- bell tower (modest) -->
    <rect x="30" y="6" width="4" height="14" fill="url(#lg-wall)" stroke="#3a2814" stroke-width="0.4"/>
    <polygon points="29,8 35,8 32,2" fill="url(#lg-tile)" stroke="#2a1408" stroke-width="0.4"/>
    <rect x="31" y="11" width="2" height="2" fill="#3a2814"/>
    <!-- smoke from hall -->
    <ellipse cx="32" cy="14" rx="2.4" ry="1.6" fill="#9a8d80" opacity="0.45"/>
  </g>
  <!-- gate marker -->
  <rect x="30" y="58" width="4" height="3" fill="#3a2814"/>
</svg>
