<svg xmlns="http://www.w3.org/2000/svg" viewBox="0 0 64 64">
  <defs>
    <linearGradient id="lg-wattle" x1="0" y1="0" x2="0.6" y2="1">
      <stop offset="0" stop-color="#d8b67c"/>
      <stop offset="1" stop-color="#7a5a30"/>
    </linearGradient>
    <linearGradient id="lg-thatch" x1="0" y1="0" x2="0" y2="1">
      <stop offset="0" stop-color="#c89858"/>
      <stop offset="1" stop-color="#6e4a1c"/>
    </linearGradient>
    <linearGradient id="lg-tile" x1="0" y1="0" x2="0" y2="1">
      <stop offset="0" stop-color="#a4502c"/>
      <stop offset="1" stop-color="#3e1c0c"/>
    </linearGradient>
    <filter id="nz" x="0" y="0" width="1" height="1">
      <feTurbulence type="fractalNoise" baseFrequency="1.0" numOctaves="2" seed="73"/>
      <feColorMatrix values="0 0 0 0 0  0 0 0 0 0  0 0 0 0 0  0 0 0 0.18 0"/>
      <feComposite in2="SourceGraphic" operator="in"/>
    </filter>
    <filter id="ds" x="-30%" y="-30%" width="160%" height="160%">
      <feGaussianBlur in="SourceAlpha" stdDeviation="0.6"/>
      <feOffset dx="0.5" dy="1"/>
      <feComponentTransfer><feFuncA type="linear" slope="0.55"/></feComponentTransfer>
      <feMerge><feMergeNode/><feMergeNode in="SourceGraphic"/></feMerge>
    </filter>
  </defs>
  <ellipse cx="32" cy="54" rx="26" ry="6" fill="#3a4818" opacity="0.45"/>
  <g filter="url(#ds)">
    <!-- central larger house -->
    <rect x="22" y="32" width="20" height="20" fill="url(#lg-wattle)" stroke="#3a2814" stroke-width="0.5"/>
    <polygon points="20,32 44,32 40,22 24,22" fill="url(#lg-thatch)" stroke="#4d2e10" stroke-width="0.5"/>
    <rect x="30" y="40" width="4" height="12" fill="#3a2814"/>
    <rect x="25" y="36" width="3" height="3" fill="#3a2814"/>
    <rect x="36" y="36" width="3" height="3" fill="#3a2814"/>
    <!-- left house (smaller) -->
    <rect x="6" y="38" width="14" height="14" fill="url(#lg-wattle)" stroke="#3a2814" stroke-width="0.5"/>
    <polygon points="4,38 22,38 18,30 8,30" fill="url(#lg-tile)" stroke="#2a1408" stroke-width="0.5"/>
    <rect x="11" y="44" width="4" height="8" fill="#3a2814"/>
    <rect x="7" y="40" width="3" height="3" fill="#3a2814"/>
    <!-- right house -->
    <rect x="44" y="38" width="14" height="14" fill="url(#lg-wattle)" stroke="#3a2814" stroke-width="0.5"/>
    <polygon points="42,38 60,38 56,30 46,30" fill="url(#lg-thatch)" stroke="#4d2e10" stroke-width="0.5"/>
    <rect x="49" y="44" width="4" height="8" fill="#3a2814"/>
    <rect x="54" y="40" width="3" height="3" fill="#3a2814"/>
    <!-- chimney smoke (center) -->
    <ellipse cx="32" cy="16" rx="3" ry="2" fill="#9a8d80" opacity="0.55"/>
    <ellipse cx="34" cy="10" rx="2.5" ry="1.6" fill="#9a8d80" opacity="0.4"/>
  </g>
  <!-- well in front -->
  <ellipse cx="32" cy="58" rx="4" ry="1.4" fill="#3a2814"/>
  <ellipse cx="32" cy="57" rx="4" ry="1.4" fill="#7a7268" stroke="#3a342a" stroke-width="0.3"/>
  <ellipse cx="32" cy="57" rx="3" ry="1" fill="#2a4a6a"/>
  <!-- garden plots flanking -->
  <g stroke="#5a4022" stroke-width="0.3" opacity="0.65">
    <line x1="2" y1="56" x2="14" y2="56"/>
    <line x1="2" y1="58" x2="14" y2="58"/>
    <line x1="50" y1="56" x2="62" y2="56"/>
    <line x1="50" y1="58" x2="62" y2="58"/>
  </g>
</svg>
